<svg width="294" height="227" viewBox="0 0 294 227" fill="none" xmlns="http://www.w3.org/2000/svg">
<rect y="0.846191" width="294" height="226.154" fill="#2A2828"/>
<g clip-path="url(#clip0_597_556)">
<path d="M158.714 108.425L158.67 108.388L158.619 108.363C158.194 108.15 157.713 108.076 157.243 108.152C156.774 108.227 156.34 108.449 156.004 108.785L155.982 108.806L155.964 108.829L143.21 125.021L134.208 115.641L134.17 115.601L134.124 115.571C133.689 115.281 133.167 115.15 132.646 115.202C132.125 115.253 131.639 115.483 131.268 115.852L131.252 115.868L131.238 115.885L118.354 131.27L118.237 131.41V131.591V138.659C118.237 139.729 118.662 140.755 119.419 141.511C120.175 142.267 121.201 142.692 122.271 142.692H171.742C172.272 142.692 172.796 142.588 173.286 142.385C173.775 142.183 174.22 141.886 174.594 141.511C174.969 141.136 175.266 140.692 175.469 140.202C175.671 139.713 175.776 139.188 175.776 138.659V122.757V122.522L175.594 122.372L158.714 108.425ZM141.232 101.088C142.982 99.3378 143.966 96.9636 143.966 94.4881C143.966 92.0125 142.982 89.6383 141.232 87.8878C139.481 86.1373 137.107 85.1539 134.632 85.1539C132.156 85.1539 129.782 86.1373 128.031 87.8878C126.281 89.6383 125.298 92.0125 125.298 94.4881C125.298 96.9636 126.281 99.3378 128.031 101.088C129.782 102.839 132.156 103.822 134.632 103.822C137.107 103.822 139.481 102.839 141.232 101.088Z" fill="white" stroke="white"/>
<path d="M158.714 108.425L158.67 108.388L158.619 108.363C158.194 108.15 157.713 108.076 157.243 108.152C156.774 108.227 156.34 108.449 156.004 108.785L155.982 108.806L155.964 108.829L143.21 125.021L134.208 115.641L134.17 115.601L134.124 115.571C133.689 115.281 133.167 115.15 132.646 115.202C132.125 115.253 131.639 115.483 131.268 115.852L131.252 115.868L131.238 115.885L118.354 131.27L118.237 131.41V131.591V138.659C118.237 139.729 118.662 140.755 119.419 141.511C120.175 142.267 121.201 142.692 122.271 142.692H171.742C172.272 142.692 172.796 142.588 173.286 142.385C173.775 142.183 174.22 141.886 174.594 141.511C174.969 141.136 175.266 140.692 175.469 140.202C175.671 139.713 175.776 139.188 175.776 138.659V122.757V122.522L175.594 122.372L158.714 108.425ZM141.232 101.088C142.982 99.3378 143.966 96.9636 143.966 94.4881C143.966 92.0125 142.982 89.6383 141.232 87.8878C139.481 86.1373 137.107 85.1539 134.632 85.1539C132.156 85.1539 129.782 86.1373 128.031 87.8878C126.281 89.6383 125.298 92.0125 125.298 94.4881C125.298 96.9636 126.281 99.3378 128.031 101.088C129.782 102.839 132.156 103.822 134.632 103.822C137.107 103.822 139.481 102.839 141.232 101.088Z" fill="white" stroke="white"/>
</g>
<rect x="119.73" y="86.6539" width="54.5385" height="54.5385" rx="9" stroke="white" stroke-width="2"/>
<defs>
<clipPath id="clip0_597_556">
<rect x="118.73" y="85.6539" width="56.5385" height="56.5385" rx="10" fill="white"/>
</clipPath>
</defs>
</svg>
