<svg width="40" height="40" viewBox="0 0 40 40" fill="none" xmlns="http://www.w3.org/2000/svg">
<path d="M9.99998 30C12.397 29.6441 14.5862 28.4382 16.168 26.6024C17.7499 24.7666 18.6189 22.4233 18.6166 20C18.6287 16.9581 19.7322 14.0215 21.7265 11.7244C23.7207 9.42739 26.4732 7.92244 29.4833 7.48334L33.8 6.86667C33.6833 6.73334 33.5833 6.6 33.45 6.46667C28.0166 1.03334 17.5833 2.66667 10.1166 10.1C3.79998 16.5 1.66665 25 4.59998 30.7667L9.99998 30Z" fill="#191919"/>
<path d="M21.2167 20C21.2058 23.0414 20.1052 25.9781 18.1146 28.2776C16.1239 30.577 13.3751 32.0869 10.3667 32.5333L6.26666 33.1167L6.51666 33.4C11.95 38.8333 22.3833 37.2167 29.85 29.7833C36.1333 23.5167 38.3333 15 35.4167 9.31665L29.85 10.1167C27.4683 10.4626 25.2888 11.6491 23.7055 13.4617C22.1222 15.2742 21.2394 17.5934 21.2167 20Z" fill="#191919"/>
</svg>
