<svg width="24" height="24" viewBox="0 0 24 24" fill="none" xmlns="http://www.w3.org/2000/svg">
<path d="M6 18C7.43822 17.7865 8.75171 17.0629 9.70082 15.9615C10.6499 14.86 11.1714 13.454 11.17 12C11.1772 10.1748 11.8393 8.4129 13.0359 7.03467C14.2324 5.65643 15.8839 4.75346 17.69 4.49L20.28 4.12C20.21 4.04 20.15 3.96 20.07 3.88C16.81 0.620001 10.55 1.6 6.07 6.06C2.28 9.9 1 15 2.76 18.46L6 18Z" fill="#5F3D2D"/>
<path d="M12.7298 12C12.7232 13.8248 12.0629 15.5869 10.8685 16.9665C9.67413 18.3462 8.02484 19.2521 6.21977 19.52L3.75977 19.87L3.90977 20.04C7.16977 23.3 13.4298 22.33 17.9098 17.87C21.6798 14.11 22.9998 9 21.2498 5.59L17.9098 6.07C16.4807 6.27759 15.1731 6.98947 14.2231 8.07701C13.2731 9.16456 12.7434 10.556 12.7298 12Z" fill="#5F3D2D"/>
</svg>
