<!-- 使用 Bootstrap d-none -->
<svg xmlns="http://www.w3.org/2000/svg" class="">
  <!-- bx-home -->
  <symbol id="bx-home" fill="currentColor" viewBox="0 0 16 16">
    <g clip-path="url(#a)" fill="#000"><path d="M.8 8.8h.8v5.6c0 .882.718 1.6 1.6 1.6h9.6c.882 0 1.6-.718 1.6-1.6V8.8h.8a.8.8 0 0 0 .566-1.366l-7.2-7.2a.8.8 0 0 0-1.132 0l-7.2 7.2A.8.8 0 0 0 .8 8.8ZM8 1.931l4.8 4.8V14.4H3.2V6.731l4.8-4.8Z"/><path d="M8 12.8c2.962 0 3.92-2.831 3.96-2.951l-1.52-.497C10.434 9.37 9.815 11.2 8 11.2c-1.79 0-2.416-1.777-2.44-1.853l-1.52.502c.04.12.998 2.951 3.96 2.951Z"/></g><defs><clipPath id="a"><path fill="#fff" d="M0 0h16v16H0z"/></clipPath></defs>
  </symbol>
  <!-- bx-power-off -->
  <symbol id="bx-power-off" fill="currentColor" viewBox="0 0 16 16">
    <path d="M8 16a6.745 6.745 0 0 0 6.737-6.737c0-2.82-1.745-5.239-4.21-6.24v1.871a5.053 5.053 0 0 1 2.526 4.37A5.058 5.058 0 0 1 8 14.315a5.058 5.058 0 0 1-5.053-5.053 5.052 5.052 0 0 1 2.527-4.369V3.022c-2.466 1.002-4.21 3.42-4.21 6.241A6.745 6.745 0 0 0 8 16Z" fill="#000"/><path d="M7.158 0h1.684v8.421H7.158V0Z" fill="#000"/>
  </symbol>
</svg>