<svg width="60" height="60" viewBox="0 0 60 60" fill="none" xmlns="http://www.w3.org/2000/svg">
<g clip-path="url(#clip0_90_312)">
<g clip-path="url(#clip1_90_312)">
<path d="M19.2 14.7C18.7226 14.7 18.2648 14.854 17.9272 15.1283C17.5897 15.4026 17.4 15.7746 17.4 16.1625C17.4 16.5503 17.5897 16.9223 17.9272 17.1966C18.2648 17.4709 18.7226 17.625 19.2 17.625H40.8C41.2774 17.625 41.7353 17.4709 42.0728 17.1966C42.4104 16.9223 42.6 16.5503 42.6 16.1625C42.6 15.7746 42.4104 15.4026 42.0728 15.1283C41.7353 14.854 41.2774 14.7 40.8 14.7H19.2ZM17.4 22.0125C17.4 21.6246 17.5897 21.2526 17.9272 20.9783C18.2648 20.704 18.7226 20.55 19.2 20.55H40.8C41.2774 20.55 41.7353 20.704 42.0728 20.9783C42.4104 21.2526 42.6 21.6246 42.6 22.0125C42.6 22.4003 42.4104 22.7723 42.0728 23.0466C41.7353 23.3209 41.2774 23.475 40.8 23.475H19.2C18.7226 23.475 18.2648 23.3209 17.9272 23.0466C17.5897 22.7723 17.4 22.4003 17.4 22.0125ZM19.2 26.4C18.7226 26.4 18.2648 26.554 17.9272 26.8283C17.5897 27.1026 17.4 27.4746 17.4 27.8625C17.4 28.2503 17.5897 28.6223 17.9272 28.8966C18.2648 29.1709 18.7226 29.325 19.2 29.325H40.8C41.2774 29.325 41.7353 29.1709 42.0728 28.8966C42.4104 28.6223 42.6 28.2503 42.6 27.8625C42.6 27.4746 42.4104 27.1026 42.0728 26.8283C41.7353 26.554 41.2774 26.4 40.8 26.4H19.2ZM19.2 32.25C18.7226 32.25 18.2648 32.404 17.9272 32.6783C17.5897 32.9526 17.4 33.3246 17.4 33.7125C17.4 34.1003 17.5897 34.4723 17.9272 34.7466C18.2648 35.0209 18.7226 35.175 19.2 35.175H30C30.4774 35.175 30.9353 35.0209 31.2728 34.7466C31.6104 34.4723 31.8 34.1003 31.8 33.7125C31.8 33.3246 31.6104 32.9526 31.2728 32.6783C30.9353 32.404 30.4774 32.25 30 32.25H19.2Z" fill="white"/>
<path d="M8.40002 8.85C8.40002 7.29848 9.15859 5.81051 10.5089 4.71343C11.8591 3.61634 13.6905 3 15.6 3L44.4 3C46.3096 3 48.1409 3.61634 49.4912 4.71343C50.8414 5.81051 51.6 7.29848 51.6 8.85V43.95C51.6 45.5015 50.8414 46.9895 49.4912 48.0866C48.1409 49.1837 46.3096 49.8 44.4 49.8H15.6C13.6905 49.8 11.8591 49.1837 10.5089 48.0866C9.15859 46.9895 8.40002 45.5015 8.40002 43.95V8.85ZM44.4 5.925H15.6C14.6452 5.925 13.7296 6.23317 13.0544 6.78171C12.3793 7.33026 12 8.07424 12 8.85V43.95C12 44.7258 12.3793 45.4697 13.0544 46.0183C13.7296 46.5668 14.6452 46.875 15.6 46.875H44.4C45.3548 46.875 46.2705 46.5668 46.9456 46.0183C47.6207 45.4697 48 44.7258 48 43.95V8.85C48 8.07424 47.6207 7.33026 46.9456 6.78171C46.2705 6.23317 45.3548 5.925 44.4 5.925Z" fill="white"/>
<rect x="4.20001" y="30.6001" width="52.2" height="24.6" fill="#191919"/>
</g>
<path d="M31.7625 4.94252C31.2199 4.65362 30.6147 4.50252 30 4.50252C29.3853 4.50252 28.7801 4.65362 28.2375 4.94252L5.7375 16.9425C5.13758 17.262 4.63576 17.7384 4.28569 18.321C3.93561 18.9036 3.75045 19.5704 3.75 20.25V23.3138L25.3125 36.2513L30 33.4388L34.6875 36.2513L56.25 23.3138V20.25C56.2495 19.5704 56.0644 18.9036 55.7143 18.321C55.3642 17.7384 54.8624 17.262 54.2625 16.9425L31.7625 4.94252ZM56.25 27.6863L38.3325 38.4375L56.25 49.1888V27.6863ZM56.1188 53.4863L30 37.8075L3.88125 53.4825C4.09697 54.2771 4.56819 54.9786 5.2222 55.4788C5.87621 55.9789 6.67666 56.25 7.5 56.25H52.5C53.3233 56.25 54.1238 55.9789 54.7778 55.4788C55.4318 54.9786 55.903 54.2808 56.1188 53.4863ZM3.75 49.185L21.6675 38.4338L3.75 27.6863V49.185ZM26.4713 1.63127C27.5573 1.05218 28.7692 0.749268 30 0.749268C31.2308 0.749268 32.4427 1.05218 33.5288 1.63127L56.0288 13.6313C57.2284 14.271 58.2317 15.2247 58.9312 16.3905C59.6307 17.5564 60.0001 18.8904 60 20.25V52.5C60 54.4891 59.2098 56.3968 57.8033 57.8033C56.3968 59.2098 54.4891 60 52.5 60H7.5C5.51088 60 3.60322 59.2098 2.1967 57.8033C0.790176 56.3968 3.75146e-08 54.4891 3.75146e-08 52.5V20.25C-0.000135925 18.8904 0.369303 17.5564 1.0688 16.3905C1.7683 15.2247 2.77155 14.271 3.97125 13.6313L26.4713 1.63127Z" fill="white"/>
</g>
<defs>
<clipPath id="clip0_90_312">
<rect width="60" height="60" fill="white"/>
</clipPath>
<clipPath id="clip1_90_312">
<rect width="57.6" height="46.8" fill="white" transform="translate(1.20001 3)"/>
</clipPath>
</defs>
</svg>
