<svg width="40" height="40" viewBox="0 0 40 40" fill="none" xmlns="http://www.w3.org/2000/svg">
<path d="M31.9167 13.3333C31.6258 12.8295 31.2082 12.4106 30.7053 12.1182C30.2024 11.8258 29.6317 11.6701 29.05 11.6666H25V8.33329C25 7.89127 24.8244 7.46734 24.5118 7.15478C24.1993 6.84222 23.7754 6.66663 23.3333 6.66663H6.66666C5.78261 6.66663 4.93476 7.01782 4.30964 7.64294C3.68452 8.26806 3.33333 9.1159 3.33333 9.99996V26.6666C3.33393 27.2512 3.48823 27.8253 3.78076 28.3314C4.0733 28.8374 4.49377 29.2577 4.99999 29.55C4.94032 31.0971 5.49767 32.6045 6.54944 33.7406C7.60121 34.8768 9.06123 35.5486 10.6083 35.6083C12.1554 35.668 13.6629 35.1106 14.799 34.0588C15.9352 33.0071 16.607 31.5471 16.6667 30H21.8333C22.0176 31.3945 22.7024 32.6745 23.7602 33.6017C24.818 34.5288 26.1767 35.04 27.5833 35.04C28.99 35.04 30.3486 34.5288 31.4064 33.6017C32.4642 32.6745 33.149 31.3945 33.3333 30C34.2174 30 35.0652 29.6488 35.6903 29.0236C36.3155 28.3985 36.6667 27.5507 36.6667 26.6666V21.6666C36.664 21.3626 36.5837 21.0642 36.4333 20.8L31.9167 13.3333ZM25 15H29.05L32.05 20H25V15ZM10.8333 31.6666C10.3389 31.6666 9.85553 31.52 9.4444 31.2453C9.03328 30.9706 8.71285 30.5801 8.52363 30.1233C8.33441 29.6665 8.2849 29.1639 8.38136 28.6789C8.47783 28.1939 8.71593 27.7485 9.06556 27.3989C9.41519 27.0492 9.86065 26.8111 10.3456 26.7147C10.8306 26.6182 11.3332 26.6677 11.79 26.8569C12.2469 27.0461 12.6373 27.3666 12.912 27.7777C13.1867 28.1888 13.3333 28.6722 13.3333 29.1666C13.3333 29.8297 13.0699 30.4655 12.6011 30.9344C12.1323 31.4032 11.4964 31.6666 10.8333 31.6666ZM27.5 31.6666C27.0055 31.6666 26.5222 31.52 26.1111 31.2453C25.6999 30.9706 25.3795 30.5801 25.1903 30.1233C25.0011 29.6665 24.9516 29.1639 25.048 28.6789C25.1445 28.1939 25.3826 27.7485 25.7322 27.3989C26.0819 27.0492 26.5273 26.8111 27.0123 26.7147C27.4972 26.6182 27.9999 26.6677 28.4567 26.8569C28.9135 27.0461 29.304 27.3666 29.5787 27.7777C29.8534 28.1888 30 28.6722 30 29.1666C30 29.8297 29.7366 30.4655 29.2678 30.9344C28.7989 31.4032 28.163 31.6666 27.5 31.6666Z" fill="black"/>
</svg>
