<svg xmlns="http://www.w3.org/2000/svg"  class="d-none">
  <!-- fig-bag -->
  <symbol id="fig-bag" fill="currentColor" viewBox="0 0 24 24">
    <path d="M5 22h14c1.103 0 2-.897 2-2V9a1 1 0 0 0-1-1h-3V7c0-2.757-2.243-5-5-5S7 4.243 7 7v1H4a1 1 0 0 0-1 1v11c0 1.103.897 2 2 2ZM9 7c0-1.654 1.346-3 3-3s3 1.346 3 3v1H9V7Zm-4 3h2v2h2v-2h6v2h2v-2h2l.002 10H5V10Z"/>
  </symbol>
  <!-- fig-codepen -->
  <symbol id="fig-codepen" fill="currentColor" viewBox="0 0 24 24">
    <path d="M21.867 8.458c-.001 0 0 0 0 0l-.003-.004h-.001a.815.815 0 0 0-.236-.23L12.45 2.135a.835.835 0 0 0-.9 0L2.373 8.227A.787.787 0 0 0 2 8.911v6.169a.79.79 0 0 0 .131.449l.002.003.01.015v.002h.002l.001.002c.063.088.14.16.227.215l9.178 6.09c.132.092.288.14.448.14a.785.785 0 0 0 .451-.14l9.178-6.09A.795.795 0 0 0 22 15.08V8.911a.794.794 0 0 0-.133-.453Zm-9.07-4.178L19.76 8.9l-3.188 2.115-3.776-2.54V4.28Zm-1.595 0v4.196l-3.776 2.54L4.24 8.9l6.962-4.62Zm-7.606 6.107 2.399 1.592-2.399 1.614v-3.206Zm7.606 9.325-6.97-4.624 3.2-2.153 3.77 2.502v4.275Zm.796-5.662-3.132-2.08 3.133-2.109 3.135 2.108-3.136 2.082Zm.799 5.662v-4.277l3.771-2.501 3.198 2.153-6.97 4.625Zm7.608-6.12-2.4-1.613 2.4-1.592v3.206Z"/>
  </symbol>
  <!-- fig-bag -->
  <symbol id="fig-bag" fill="currentColor" viewBox="0 0 24 24">
    <path d="M5 22h14c1.103 0 2-.897 2-2V9a1 1 0 0 0-1-1h-3V7c0-2.757-2.243-5-5-5S7 4.243 7 7v1H4a1 1 0 0 0-1 1v11c0 1.103.897 2 2 2ZM9 7c0-1.654 1.346-3 3-3s3 1.346 3 3v1H9V7Zm-4 3h2v2h2v-2h6v2h2v-2h2l.002 10H5V10Z"/>
  </symbol>
  <!-- fig-calendar -->
  <symbol id="fig-calendar" fill="currentColor" viewBox="0 0 24 24">
    <path d="M21 20V6c0-1.103-.897-2-2-2h-2V2h-2v2H9V2H7v2H5c-1.103 0-2 .897-2 2v14c0 1.103.897 2 2 2h14c1.103 0 2-.897 2-2ZM9 18H7v-2h2v2Zm0-4H7v-2h2v2Zm4 4h-2v-2h2v2Zm0-4h-2v-2h2v2Zm4 4h-2v-2h2v2Zm0-4h-2v-2h2v2Zm2-5H5V7h14v2Z"/>
  </symbol>
  <!-- fig-chart-bar-square -->
  <symbol id="fig-chart-bar-square" fill="currentColor" viewBox="0 0 24 24">
    <path d="M2 4.222v15.556C2 21.003 2.997 22 4.222 22h15.556A2.224 2.224 0 0 0 22 19.778V4.222A2.224 2.224 0 0 0 19.778 2H4.222A2.224 2.224 0 0 0 2 4.222Zm17.779 15.556H4.222V4.222h15.556v15.556Z"/>
    <path d="M10.889 6.444h2.222v11.112H10.89V6.444Zm4.444 3.334h2.223v7.778h-2.223V9.778ZM6.444 12h2.223v5.556H6.444V12Z"/>
  </symbol>
  <!-- fig-chart-pie -->
  <symbol id="fig-chart-pie" fill="currentColor" viewBox="0 0 24 24">
    <path d="M12.977 6.01c2.513.424 4.589 2.5 5.013 5.013H22c-.472-4.729-4.294-8.55-9.023-9.023v4.01Z"/>
    <path d="M17.99 13.028c-.48 2.84-2.99 4.962-5.964 4.962a6.021 6.021 0 0 1-6.016-6.016C6.01 9 8.132 6.49 10.972 6.01V2C5.913 2.505 2 6.785 2 11.974 2 17.503 6.497 22 12.026 22c5.189 0 9.469-3.913 9.974-8.972h-4.01Z"/>
  </symbol>
  <!-- fig-clock -->
  <symbol id="fig-clock" fill="currentColor" viewBox="0 0 24 24">
    <path d="M12 2C6.486 2 2 6.486 2 12s4.486 10 10 10 10-4.486 10-10S17.514 2 12 2Zm0 18c-4.411 0-8-3.589-8-8s3.589-8 8-8 8 3.589 8 8-3.589 8-8 8Z"/>
    <path d="M13 7h-2v6h6v-2h-4V7Z"/>
  </symbol>
  <!-- fig-coffee-bean -->
  <symbol id="fig-coffee-bean" fill="currentColor" viewBox="0 0 24 24">
    <path d="M6.011 18.029a6.05 6.05 0 0 0 5.163-5.99 7.608 7.608 0 0 1 6.51-7.5l2.585-.369c-.07-.08-.13-.16-.21-.24C16.806.677 10.555 1.655 6.082 6.108 2.297 9.941 1.02 15.034 2.776 18.488l3.235-.459Z"/>
    <path d="M12.731 12.038a7.619 7.619 0 0 1-6.5 7.509l-2.456.35.15.169c3.255 3.255 9.505 2.286 13.978-2.167 3.764-3.754 5.082-8.856 3.335-12.261l-3.335.48a6.04 6.04 0 0 0-5.172 5.92Z"/>
  </symbol>
  <!-- fig-coffee-goto -->
  <symbol id="fig-coffee-goto" fill="currentColor" viewBox="0 0 24 24">
    <path d="M7 22h10a1 1 0 0 0 .99-.858L19.867 8H21V6h-1.382l-1.724-3.447A.998.998 0 0 0 17 2H7c-.379 0-.725.214-.895.553L4.382 6H3v2h1.133L6.01 21.142A1 1 0 0 0 7 22Zm10.418-11H6.582l-.429-3h11.693l-.428 3Zm-9.551 9-.429-3h9.123l-.429 3H7.867ZM7.618 4h8.764l1 2H6.618l1-2Z"/>
  </symbol>
  <!-- fig-copy -->
  <symbol id="fig-copy" fill="currentColor" viewBox="0 0 24 24">
    <path d="M20 2H10c-1.103 0-2 .897-2 2v4H4c-1.103 0-2 .897-2 2v10c0 1.103.897 2 2 2h10c1.103 0 2-.897 2-2v-4h4c1.103 0 2-.897 2-2V4c0-1.103-.897-2-2-2ZM4 20V10h10l.002 10H4Zm16-6h-4v-4c0-1.103-.897-2-2-2h-4V4h10v10Z"/>
    <path d="M6 12h6v2H6v-2Zm0 4h6v2H6v-2Z"/>
  </symbol>
  <!-- fig-dot -->
  <symbol id="fig-dot" fill="currentColor" viewBox="0 0 24 24">
    <path d="M12 15a3 3 0 1 0 0-6 3 3 0 0 0 0 6Z"/>
  </symbol>
  <!-- fig-dots-vertical -->
  <symbol id="fig-dots-vertical" fill="currentColor" viewBox="0 0 24 24">
    <path d="M12 10c-1.1 0-2 .9-2 2s.9 2 2 2 2-.9 2-2-.9-2-2-2Zm0-6c-1.1 0-2 .9-2 2s.9 2 2 2 2-.9 2-2-.9-2-2-2Zm0 12c-1.1 0-2 .9-2 2s.9 2 2 2 2-.9 2-2-.9-2-2-2Z"/>
  </symbol>
  <!-- fig-down -->
  <symbol id="fig-down" fill="currentColor" viewBox="0 0 24 24">
    <path d="M17.266 7.633 12 12.899 6.734 7.633 5 9.367l7 7 7-7-1.734-1.734Z"/>
  </symbol>
  <!-- fig-filter -->
  <symbol id="fig-filter" fill="currentColor" viewBox="0 0 24 24">
    <path d="M7 11h10v2H7v-2ZM4 7h16v2H4V7Zm6 8h4v2h-4v-2Z"/>
  </symbol>
  <!-- fig-github -->
  <symbol id="fig-github" fill="currentColor" viewBox="0 0 24 24">
    <path fill-rule="evenodd" clip-rule="evenodd" d="M12 2.247c-5.523 0-10 4.477-10 10 0 4.417 2.864 8.166 6.839 9.49.5.09.68-.218.68-.483 0-.237-.007-.867-.01-1.7-2.783.604-3.37-1.342-3.37-1.342-.453-1.155-1.11-1.462-1.11-1.462-.907-.621.07-.607.07-.607 1.004.07 1.53 1.03 1.53 1.03.892 1.529 2.342 1.088 2.91.832.09-.647.352-1.088.636-1.338-2.22-.251-4.554-1.11-4.554-4.943 0-1.09.39-1.984 1.027-2.681-.101-.254-.447-1.272.1-2.647 0 0 .839-.27 2.748 1.023A9.607 9.607 0 0 1 12 7.082a9.578 9.578 0 0 1 2.502.337c1.912-1.294 2.75-1.023 2.75-1.023.546 1.375.203 2.393.099 2.647.642.697 1.027 1.59 1.027 2.682 0 3.843-2.336 4.687-4.564 4.934.356.31.676.919.676 1.851 0 1.338-.012 2.416-.012 2.744 0 .268.179.579.69.48C19.138 20.41 22 16.665 22 12.248c0-5.523-4.477-10-10-10Z"/>
  </symbol>
  <!-- fig-home -->
  <symbol id="fig-home" fill="currentColor" viewBox="0 0 24 24"><g clip-path="url(#a)">
    <path d="M1.2 13.2h1.2v8.4c0 1.324 1.076 2.4 2.4 2.4h14.4c1.323 0 2.4-1.076 2.4-2.4v-8.4h1.2a1.2 1.2 0 0 0 .848-2.048l-10.8-10.8a1.2 1.2 0 0 0-1.696 0l-10.8 10.8A1.2 1.2 0 0 0 1.2 13.2ZM12 2.897l7.2 7.2V15.6l.001 6h-14.4V10.097L12 2.897Z"/><path d="M12 19.2c4.444 0 5.881-4.247 5.94-4.427l-2.28-.745c-.01.028-.937 2.772-3.66 2.772-2.686 0-3.624-2.665-3.661-2.78l-2.279.753c.059.18 1.496 4.427 5.94 4.427Z"/></g><defs><clipPath id="a"><path fill="#fff" d="M0 0h24v24H0z"/></clipPath></defs></symbol>
  <!-- fig-left -->
  <symbol id="fig-left" fill="currentColor" viewBox="0 0 24 24">
    <path d="m14.633 5-7 7 7 7 1.734-1.734L11.101 12l5.266-5.266L14.633 5Z"/>
  </symbol>
  <!-- fig-logo -->
  <symbol id="fig-logo" fill="currentColor" viewBox="0 0 24 24">
    <path d="M6.415 7.309c1.545.549 3.514.829 5.889.829 2.425 0 4.351-.28 5.888-.83 1.64-.538 2.426-1.263 2.426-1.947 0-.487-.353-.963-.993-1.326a.847.847 0 0 1 .257.611c0 .694-.742 1.264-2.234 1.74-1.383.426-3.146.726-5.293.726-2.073 0-3.918-.3-5.248-.705-1.434-.497-2.184-1.035-2.184-1.74 0-.29.095-.539.382-.829-.897.487-1.382.902-1.382 1.523.051.705.853 1.41 2.492 1.948ZM9.863 5.07c1.67-.207 2.154-1.719 4.11-1.967.962-.104 1.573.165 1.639.642.059.446-.42.746-1 .808-.802.114-1.133-.29-1.199-.673-.595.093-.691.445-.662.694.067.476.787.953 2.023.787 1.397-.155 1.867-.932 1.75-1.71-.148-1.014-1.221-1.864-3.148-1.605-2.47.31-2.455 1.927-4.138 2.124-.691.093-1.073-.135-1.14-.518-.044-.384.295-.57.692-.611.367-.052.816.041 1.03.207.154-.114.205-.228.19-.363-.073-.362-.58-.518-1.22-.456-1.25.156-1.25.943-1.206 1.295.125.902 1.088 1.503 2.28 1.347Zm8.395 3.978c-1.544.508-3.514.838-5.888.838-2.427 0-4.404-.352-5.94-.828-1.382-.498-2.118-1.047-2.375-1.617.132 1.275.36 2.508.655 3.678-.353.311-.67.694-.956 1.212-.525.901-.792 2.046-.75 3.21.027.531.134 1.048.314 1.516.18.469.429.877.73 1.198.64.705 1.331.912 2.117.705.302-.073.64-.29.949-.435-.647 0-1.191-.29-1.735-.902a3.46 3.46 0 0 1-.734-1.092 4.719 4.719 0 0 1-.362-1.415c-.147-.974 0-1.875.39-2.672.088-.155.184-.29.287-.414.22.756.455 1.502.72 2.196.596 1.274 1.191 2.382 1.787 3.584.257.704.426 1.398.544 2.091.398.776.98 1.326 1.639 1.554.846.415 1.728.601 2.632.529h.095c.92.056 1.84-.126 2.713-.539.633-.261 1.19-.802 1.588-1.544h.051c.096-.694.258-1.388.493-2.092.588-1.212 1.19-2.31 1.779-3.583a28.193 28.193 0 0 0 1.646-6.773c-.316.621-1.058 1.17-2.389 1.595Z"/>
  </symbol>
  <!-- fig-logout -->
  <symbol id="fig-logout" fill="currentColor" viewBox="0 0 24 24">
    <path d="M16 13v-2H7V8l-5 4 5 4v-3h9Z"/>
    <path d="M20 3h-9c-1.103 0-2 .897-2 2v4h2V5h9v14h-9v-4H9v4c0 1.103.897 2 2 2h9c1.103 0 2-.897 2-2V5c0-1.103-.897-2-2-2Z"/>
  </symbol>
  <!-- fig-menu -->
  <symbol id="fig-menu" fill="currentColor" viewBox="0 0 24 24">
    <path d="M2 4.5h20V7H2V4.5Zm0 6.25h20v2.5H2v-2.5ZM2 17h20v2.5H2V17Z"/>
  </symbol>
  <!-- fig-note -->
  <symbol id="fig-note" fill="currentColor" viewBox="0 0 24 24">
    <path d="M19 4h-3V2h-2v2h-4V2H8v2H5c-1.103 0-2 .897-2 2v14c0 1.103.897 2 2 2h14c1.103 0 2-.897 2-2V6c0-1.103-.897-2-2-2ZM5 20V7h14V6l.002 14H5Z"/>
    <path d="M7 9h10v2H7V9Zm0 4h5v2H7v-2Z"/>
  </symbol>
  <!-- fig-pen -->
  <symbol id="fig-pen" fill="currentColor" viewBox="0 0 24 24">
    <path d="m8.141 20.609 10-10-4.75-4.75-10 10a1.08 1.08 0 0 0-.283.499L2 22l5.64-1.108c.19-.048.364-.146.501-.283ZM21.37 7.38a2.152 2.152 0 0 0 0-3.043L19.663 2.63a2.152 2.152 0 0 0-3.043 0l-1.707 1.707 4.75 4.75L21.37 7.38Z"/>
  </symbol>
  <!-- fig-plus -->
  <symbol id="fig-plus" fill="currentColor" viewBox="0 0 24 24">
    <path d="M19 11h-6V5h-2v6H5v2h6v6h2v-6h6v-2Z"/>
  </symbol>
  <!-- fig-reset -->
  <symbol id="fig-reset" fill="currentColor" viewBox="0 0 24 24">
    <path d="M12 16c1.671 0 3-1.331 3-3s-1.329-3-3-3-3 1.331-3 3 1.329 3 3 3Z"/>
    <path d="M20.817 11.186a8.94 8.94 0 0 0-1.355-3.219 9.053 9.053 0 0 0-2.43-2.43 8.95 8.95 0 0 0-5.057-1.535V2L8 5l3.975 3V6.002a6.961 6.961 0 0 1 3.937 1.193 7.004 7.004 0 0 1 1.894 9.718 7.028 7.028 0 0 1-4.394 2.946 7.13 7.13 0 0 1-2.822 0A7.002 7.002 0 0 1 5 13H3a9.02 9.02 0 0 0 1.539 5.034 9.096 9.096 0 0 0 2.428 2.428A8.95 8.95 0 0 0 12 22c.61 0 1.217-.061 1.814-.183a9.014 9.014 0 0 0 5.649-3.786A8.952 8.952 0 0 0 21 13c0-.61-.061-1.217-.183-1.814Z"/>
  </symbol>
  <!-- fig-right -->
  <symbol id="fig-right" fill="currentColor" viewBox="0 0 24 24">
    <path d="m9.367 19 7-7-7-7-1.734 1.734L12.899 12l-5.266 5.266L9.367 19Z"/>
  </symbol>
  <!-- fig-save -->
  <symbol id="fig-save" fill="currentColor" viewBox="0 0 24 24">
    <path d="M4.222 22h15.556A2.222 2.222 0 0 0 22 19.778V7.556a1.112 1.112 0 0 0-.322-.79l-4.445-4.444A1.11 1.11 0 0 0 16.444 2H4.222A2.222 2.222 0 0 0 2 4.222v15.556A2.222 2.222 0 0 0 4.222 22Zm11.111-2.222H8.667v-5.556h6.666v5.556ZM13.111 6.444H10.89V4.222h2.222v2.222ZM4.222 4.222h2.222v4.445h8.89V4.222h.655l3.789 3.79v11.766h-2.223v-5.556A2.222 2.222 0 0 0 15.333 12H8.667a2.222 2.222 0 0 0-2.223 2.222v5.556H4.222V4.222Z"/>
  </symbol>
  <!-- fig-search -->
  <symbol id="fig-search" fill="currentColor" viewBox="0 0 24 24">
    <path d="M10.553 19.105a8.5 8.5 0 0 0 5.235-1.805l4.7 4.7L22 20.488l-4.7-4.7a8.502 8.502 0 0 0 1.805-5.236C19.105 5.838 15.27 2 10.553 2c-4.716 0-8.552 3.837-8.552 8.553 0 4.715 3.836 8.552 8.552 8.552Zm0-14.967a6.42 6.42 0 0 1 6.414 6.415 6.42 6.42 0 0 1-6.414 6.414 6.42 6.42 0 0 1-6.414-6.414 6.42 6.42 0 0 1 6.414-6.415Z"/>
  </symbol>
  <!-- fig-setting -->
  <symbol id="fig-setting" fill="currentColor" viewBox="0 0 24 24">
    <path d="M12 16c2.206 0 4-1.794 4-4s-1.794-4-4-4-4 1.794-4 4 1.794 4 4 4Zm0-6c1.084 0 2 .916 2 2s-.916 2-2 2-2-.916-2-2 .916-2 2-2Z"/>
    <path d="m2.845 16.136 1 1.73c.531.917 1.809 1.261 2.73.73l.529-.306A8.1 8.1 0 0 0 9 19.402V20c0 1.103.897 2 2 2h2c1.103 0 2-.897 2-2v-.598a8.132 8.132 0 0 0 1.896-1.111l.529.306c.923.53 2.198.188 2.731-.731l.999-1.729a2.001 2.001 0 0 0-.731-2.732l-.505-.292a7.723 7.723 0 0 0 0-2.224l.505-.292a2.002 2.002 0 0 0 .731-2.732l-.999-1.729c-.531-.92-1.808-1.265-2.731-.732l-.529.306A8.101 8.101 0 0 0 15 4.598V4c0-1.103-.897-2-2-2h-2c-1.103 0-2 .897-2 2v.598a8.132 8.132 0 0 0-1.896 1.111l-.529-.306c-.924-.531-2.2-.187-2.731.732l-.999 1.729a2.001 2.001 0 0 0 .731 2.732l.505.292a7.683 7.683 0 0 0 0 2.223l-.505.292a2.003 2.003 0 0 0-.731 2.733Zm3.326-2.758A5.703 5.703 0 0 1 6 12c0-.462.058-.926.17-1.378a.999.999 0 0 0-.47-1.108l-1.123-.65.998-1.729 1.145.662a.997.997 0 0 0 1.188-.142 6.071 6.071 0 0 1 2.384-1.399A1 1 0 0 0 11 5.3V4h2v1.3a1 1 0 0 0 .708.956 6.083 6.083 0 0 1 2.384 1.399.999.999 0 0 0 1.188.142l1.144-.661 1 1.729-1.124.649a1 1 0 0 0-.47 1.108c.112.452.17.916.17 1.378 0 .461-.058.925-.171 1.378a1 1 0 0 0 .471 1.108l1.123.649-.998 1.729-1.145-.661a.996.996 0 0 0-1.188.142 6.072 6.072 0 0 1-2.384 1.399A1 1 0 0 0 13 18.7l.002 1.3H11v-1.3a1 1 0 0 0-.708-.956 6.083 6.083 0 0 1-2.384-1.399.992.992 0 0 0-1.188-.141l-1.144.662-1-1.729 1.124-.651a1 1 0 0 0 .471-1.108Z"/>
  </symbol>
  <!-- fig-shop -->
  <symbol id="fig-shop" fill="currentColor" viewBox="0 0 24 24">
    <path d="M19.148 2.971A2.008 2.008 0 0 0 17.434 2H6.566c-.698 0-1.355.372-1.714.971L2.143 7.485A.995.995 0 0 0 2 8a3.97 3.97 0 0 0 1 2.618V19c0 1.103.897 2 2 2h14c1.103 0 2-.897 2-2v-8.382A3.97 3.97 0 0 0 22 8c0-.181-.05-.36-.143-.515l-2.709-4.514Zm.836 5.28A2.003 2.003 0 0 1 18 10c-1.103 0-2-.897-2-2 0-.068-.025-.128-.039-.192l.02-.004L15.22 4h2.214l2.55 4.251ZM10.819 4h2.361l.813 4.065A1.999 1.999 0 0 1 12 10a1.999 1.999 0 0 1-1.993-1.935L10.819 4ZM6.566 4H8.78l-.76 3.804.02.004C8.025 7.872 8 7.932 8 8c0 1.103-.897 2-2 2a2.003 2.003 0 0 1-1.984-1.749L6.566 4ZM10 19v-3h4v3h-4Zm6 0v-3c0-1.103-.897-2-2-2h-4c-1.103 0-2 .897-2 2v3H5v-7.142c.321.083.652.142 1 .142a3.99 3.99 0 0 0 3-1.357A3.99 3.99 0 0 0 12 12a3.99 3.99 0 0 0 3-1.357A3.99 3.99 0 0 0 18 12c.348 0 .679-.059 1-.142V19h-3Z"/>
  </symbol>
  <!-- fig-star-fill -->
  <symbol id="fig-star-fill" fill="currentColor" viewBox="0 0 24 24">
    <path d="M21.946 9.18a1 1 0 0 0-.868-.676l-5.7-.453-2.467-5.46a.998.998 0 0 0-1.822-.001L8.623 8.05l-5.7.453a1 1 0 0 0-.62 1.713l4.213 4.106-1.49 6.451a1 1 0 0 0 1.53 1.057L12 18.201l5.444 3.63a1 1 0 0 0 1.517-1.105l-1.829-6.4 4.536-4.081c.297-.268.406-.686.278-1.065Z"/>
  </symbol>
  <!-- fig-star-outline -->
  <symbol id="fig-star-outline" fill="currentColor" viewBox="0 0 24 24">
    <path d="m6.517 14.322-1.49 6.45a.998.998 0 0 0 1.53 1.058L12 18.2l5.444 3.63a1.002 1.002 0 0 0 1.517-1.106l-1.829-6.399 4.535-4.081a1 1 0 0 0-.59-1.74l-5.7-.454-2.466-5.46a.998.998 0 0 0-1.822 0L8.623 8.05l-5.7.453a1 1 0 0 0-.62 1.713l4.214 4.106ZM9.37 9.997a.998.998 0 0 0 .831-.586l1.8-3.98 1.798 3.98a.999.999 0 0 0 .832.586l3.97.315-3.27 2.943c-.284.256-.396.65-.292 1.018l1.252 4.384-3.735-2.49a.995.995 0 0 0-1.109 0l-3.903 2.602 1.05-4.545a1 1 0 0 0-.276-.94L5.28 10.323l4.09-.326Z"/>
  </symbol>
  <!-- fig-ticket -->
  <symbol id="fig-ticket" fill="currentColor" viewBox="0 0 24 24">
    <path d="M7 8.062v1.125h1.25V8.062H7Zm8.75 0v1.125H17V8.062h-1.25ZM7 10.312v1.126h1.25v-1.126H7Zm8.75 0v1.126H17v-1.126h-1.25ZM7 12.563v1.126h1.25v-1.126H7Zm8.75 0v1.126H17v-1.126h-1.25ZM7 14.813v1.126h1.25v-1.126H7Zm8.75 0v1.126H17v-1.126h-1.25Z"/>
    <path d="M3.875 5.75A1.875 1.875 0 0 0 2 7.625V9.5a.625.625 0 0 0 .625.625 1.875 1.875 0 1 1 0 3.75A.625.625 0 0 0 2 14.5v1.875a1.875 1.875 0 0 0 1.875 1.875h16.25A1.875 1.875 0 0 0 22 16.375V14.5a.624.624 0 0 0-.625-.625 1.875 1.875 0 1 1 0-3.75A.625.625 0 0 0 22 9.5V7.625a1.875 1.875 0 0 0-1.875-1.875H3.875ZM3.25 7.625A.625.625 0 0 1 3.875 7h16.25a.625.625 0 0 1 .625.625v1.313a3.125 3.125 0 0 0 0 6.124v1.313a.624.624 0 0 1-.625.625H3.875a.625.625 0 0 1-.625-.625v-1.313a3.125 3.125 0 0 0 0-6.124V7.625Z"/>
  </symbol>
  <!-- fig-trash -->
  <symbol id="fig-trash" fill="currentColor" viewBox="0 0 24 24">
    <path d="M5 20a2 2 0 0 0 2 2h10a2 2 0 0 0 2-2V8h2V6h-4V4a2 2 0 0 0-2-2H9a2 2 0 0 0-2 2v2H3v2h2v12ZM9 4h6v2H9V4ZM8 8h9v12H7V8h1Z"/>
    <path d="M9 10h2v8H9v-8Zm4 0h2v8h-2v-8Z"/>
  </symbol>
  <!-- fig-undo -->
  <symbol id="fig-undo" fill="currentColor" viewBox="0 0 24 24">
    <path d="M8.25 10.125h7.5a3.755 3.755 0 0 1 3.75 3.75 3.755 3.755 0 0 1-3.75 3.75H12v2.5h3.75a6.257 6.257 0 0 0 6.25-6.25 6.257 6.257 0 0 0-6.25-6.25h-7.5v-3.75l-6.25 5 6.25 5v-3.75Z"/>
  </symbol>
  <!-- fig-user -->
  <symbol id="fig-user" fill="currentColor" viewBox="0 0 24 24">
    <path d="M12 2A10.13 10.13 0 0 0 2 12a10 10 0 0 0 4 7.92V20h.1a9.7 9.7 0 0 0 11.8 0h.1v-.08A10.001 10.001 0 0 0 22 12 10.13 10.13 0 0 0 12 2ZM8.07 18.93A3 3 0 0 1 11 16.57h2a3 3 0 0 1 2.93 2.36 7.75 7.75 0 0 1-7.86 0Zm9.54-1.29A5 5 0 0 0 13 14.57h-2a5 5 0 0 0-4.61 3.07A8 8 0 0 1 4 12a8.1 8.1 0 0 1 8-8 8.1 8.1 0 0 1 8 8 8 8 0 0 1-2.39 5.64Z"/>
    <path d="M12 6a3.91 3.91 0 0 0-4 4 3.91 3.91 0 0 0 4 4 3.91 3.91 0 0 0 4-4 3.91 3.91 0 0 0-4-4Zm0 6a1.908 1.908 0 0 1-2-2 1.909 1.909 0 0 1 2-2 1.91 1.91 0 0 1 2 2 1.912 1.912 0 0 1-2 2Z"/>
  </symbol>
  <!-- fig-arrow-up -->
  <symbol id="fig-arrow-up" currentColor="none" viewBox="0 0 24 24">
    <path d="M10.509 7.707V22h2.982V7.707l6.4 6.401L22 12 12 2 2 12l2.108 2.108 6.401-6.4Z"/>
  </symbol>
  <!-- fig-vue -->
  <symbol id="fig-vue" fill="currentColor" viewBox="0 0 24 24">
    <path d="m12 12.764 5.587-9.429h-3.273L12 7.334v.002L9.69 3.335H6.412L12 12.765Z"/>
    <path d="M18.456 3.339 12 14.233 5.544 3.34H2l10 17.326L22 3.34h-3.544Z"/>
  </symbol>
  <!-- fig-error -->
  <symbol id="fig-error" fill="currentColor" viewBox="0 0 24 24">
    <g clip-path="url(#a)"><path d="M11.944 0C5.358 0 0 5.383 0 12s5.383 12 12 12 12-5.383 12-12S18.592 0 11.944 0ZM12 21.6c-5.293 0-9.6-4.307-9.6-9.6 0-5.293 4.28-9.6 9.544-9.6 5.325 0 9.656 4.307 9.656 9.6 0 5.293-4.307 9.6-9.6 9.6Z"/><path d="M10.8 6h2.4v8.4h-2.4V6Zm0 9.6h2.4V18h-2.4v-2.4Z"/></g>
    <defs><clipPath id="a"><path d="M0 0h24v24H0z"/></clipPath></defs>
  </symbol>
  <!-- fig-x -->
  <symbol id="fig-x" fill="currentColor"  viewBox="0 0 24 24">
    <path d="M19.5 2 12 9.5 4.5 2 2 4.5 9.5 12 2 19.5 4.5 22l7.5-7.5 7.5 7.5 2.5-2.5-7.5-7.5L22 4.5 19.5 2Z"/>
  </symbol>
  <!-- fig-upload -->
  <symbol id="fig-upload" fill="currentColor" viewBox="0 0 24 24">
    <path d="M13 19v-4h3l-4-5-4 5h3v4h2Z"/>
    <path d="M7 19h2v-2H7c-1.654 0-3-1.346-3-3 0-1.404 1.199-2.756 2.673-3.015l.581-.102.192-.558C8.149 8.274 9.895 7 12 7c2.757 0 5 2.243 5 5v1h1c1.103 0 2 .897 2 2s-.897 2-2 2h-3v2h3c2.206 0 4-1.794 4-4a4.01 4.01 0 0 0-3.056-3.888C18.507 7.67 15.56 5 12 5 9.244 5 6.85 6.611 5.757 9.15 3.609 9.792 2 11.82 2 14c0 2.757 2.243 5 5 5Z"/>
  </symbol>
  <!-- fig-valid-success -->
  <symbol id="fig-valid-success" fill="currentColor" viewBox="0 0 24 24">
    <g clip-path="url(#a)"><path d="M12 0C5.383 0 0 5.383 0 12s5.383 12 12 12 12-5.383 12-12S18.617 0 12 0Zm0 21.6c-5.293 0-9.6-4.307-9.6-9.6 0-5.293 4.307-9.6 9.6-9.6 5.293 0 9.6 4.307 9.6 9.6 0 5.293-4.307 9.6-9.6 9.6Z"/><path d="M9.599 13.904 6.84 11.15l-1.694 1.7L9.6 17.296l8.047-8.048-1.696-1.696-6.353 6.352Z"/></g><defs><clipPath id="a"><path d="M0 0h24v24H0z"/></clipPath></defs>
  </symbol>
  <!-- fig-file -->
  <svg id="fig-file" fill="currentColor" viewBox="0 0 24 24">
    <path d="M19.903 8.586a.997.997 0 0 0-.196-.293l-6-6a.997.997 0 0 0-.293-.196c-.03-.014-.062-.022-.094-.033a.991.991 0 0 0-.259-.051C13.04 2.011 13.021 2 13 2H6c-1.103 0-2 .897-2 2v16c0 1.103.897 2 2 2h12c1.103 0 2-.897 2-2V9c0-.021-.011-.04-.013-.062a.954.954 0 0 0-.051-.259c-.01-.032-.019-.063-.033-.093ZM16.586 8H14V5.414L16.586 8ZM6 20V4h6v5a1 1 0 0 0 1 1h5l.002 10H6Z"/>
    <path d="M8 12h8v2H8v-2Zm0 4h8v2H8v-2Zm0-8h2v2H8V8Z"/>
  </svg>
</svg>