<svg xmlns="http://www.w3.org/2000/svg" class="d-none">
  <!-- bootstrap -->
  <symbol id="bootstrap" fill="currentColor" class="bi bi-bootstrap-fill" viewBox="0 0 16 16">
    <path  d="M6.375 7.125V4.658h1.78c.973 0 1.542.457 1.542 1.237 0 .802-.604 1.23-1.764 1.23zm0 3.762h1.898c1.184 0 1.81-.48 1.81-1.377 0-.885-.65-1.348-1.886-1.348H6.375z"/>
    <path d="M4.002 0a4 4 0 0 0-4 4v8a4 4 0 0 0 4 4h8a4 4 0 0 0 4-4V4a4 4 0 0 0-4-4zm1.06 12V3.545h3.399c1.587 0 2.543.809 2.543 2.11 0 .884-.65 1.675-1.483 1.816v.1c1.143.117 1.904.931 1.904 2.033 0 1.488-1.084 2.396-2.888 2.396z"/>
  </symbol>
  <!-- bag-plus -->
  <symbol id="bag-plus" fill="currentColor" class="bi bi-bag-plus-fill" viewBox="0 0 16 16">
    <path fill-rule="evenodd" d="M10.5 3.5a2.5 2.5 0 0 0-5 0V4h5zm1 0V4H15v10a2 2 0 0 1-2 2H3a2 2 0 0 1-2-2V4h3.5v-.5a3.5 3.5 0 1 1 7 0M8.5 8a.5.5 0 0 0-1 0v1.5H6a.5.5 0 0 0 0 1h1.5V12a.5.5 0 0 0 1 0v-1.5H10a.5.5 0 0 0 0-1H8.5z"/>
  </symbol>
  <!-- bag-plus-outline -->
  <symbol id="bag-plus-outline" fill="currentColor" class="bi bi-bag-plus" viewBox="0 0 16 16">
    <path fill-rule="evenodd" d="M8 7.5a.5.5 0 0 1 .5.5v1.5H10a.5.5 0 0 1 0 1H8.5V12a.5.5 0 0 1-1 0v-1.5H6a.5.5 0 0 1 0-1h1.5V8a.5.5 0 0 1 .5-.5"/>
    <path d="M8 1a2.5 2.5 0 0 1 2.5 2.5V4h-5v-.5A2.5 2.5 0 0 1 8 1m3.5 3v-.5a3.5 3.5 0 1 0-7 0V4H1v10a2 2 0 0 0 2 2h10a2 2 0 0 0 2-2V4zM2 5h12v9a1 1 0 0 1-1 1H3a1 1 0 0 1-1-1z"/>
  </symbol>
  <!-- cart -->
  <symbol id="cart" fill="currentColor" class="bi bi-cart4" viewBox="0 0 16 16">
    <path d="M0 2.5A.5.5 0 0 1 .5 2H2a.5.5 0 0 1 .485.379L2.89 4H14.5a.5.5 0 0 1 .485.621l-1.5 6A.5.5 0 0 1 13 11H4a.5.5 0 0 1-.485-.379L1.61 3H.5a.5.5 0 0 1-.5-.5M3.14 5l.5 2H5V5zM6 5v2h2V5zm3 0v2h2V5zm3 0v2h1.36l.5-2zm1.11 3H12v2h.61zM11 8H9v2h2zM8 8H6v2h2zM5 8H3.89l.5 2H5zm0 5a1 1 0 1 0 0 2 1 1 0 0 0 0-2m-2 1a2 2 0 1 1 4 0 2 2 0 0 1-4 0m9-1a1 1 0 1 0 0 2 1 1 0 0 0 0-2m-2 1a2 2 0 1 1 4 0 2 2 0 0 1-4 0"/>
  </symbol>
  <!-- tickit -->
  <symbol id="tickit" fill="currentColor" class="bi bi-ticket-perforated-fill" viewBox="0 0 16 16">
    <path d="M0 4.5A1.5 1.5 0 0 1 1.5 3h13A1.5 1.5 0 0 1 16 4.5V6a.5.5 0 0 1-.5.5 1.5 1.5 0 0 0 0 3 .5.5 0 0 1 .5.5v1.5a1.5 1.5 0 0 1-1.5 1.5h-13A1.5 1.5 0 0 1 0 11.5V10a.5.5 0 0 1 .5-.5 1.5 1.5 0 1 0 0-3A.5.5 0 0 1 0 6zm4-1v1h1v-1zm1 3v-1H4v1zm7 0v-1h-1v1zm-1-2h1v-1h-1zm-6 3H4v1h1zm7 1v-1h-1v1zm-7 1H4v1h1zm7 1v-1h-1v1zm-8 1v1h1v-1zm7 1h1v-1h-1z"/>
  </symbol>
  <!-- tickit-outline -->
  <symbol id="tickit-outline" fill="currentColor" class="bi bi-ticket-perforated" viewBox="0 0 16 16">
    <path d="M4 4.85v.9h1v-.9zm7 0v.9h1v-.9zm-7 1.8v.9h1v-.9zm7 0v.9h1v-.9zm-7 1.8v.9h1v-.9zm7 0v.9h1v-.9zm-7 1.8v.9h1v-.9zm7 0v.9h1v-.9z"/>
    <path d="M1.5 3A1.5 1.5 0 0 0 0 4.5V6a.5.5 0 0 0 .5.5 1.5 1.5 0 1 1 0 3 .5.5 0 0 0-.5.5v1.5A1.5 1.5 0 0 0 1.5 13h13a1.5 1.5 0 0 0 1.5-1.5V10a.5.5 0 0 0-.5-.5 1.5 1.5 0 0 1 0-3A.5.5 0 0 0 16 6V4.5A1.5 1.5 0 0 0 14.5 3zM1 4.5a.5.5 0 0 1 .5-.5h13a.5.5 0 0 1 .5.5v1.05a2.5 2.5 0 0 0 0 4.9v1.05a.5.5 0 0 1-.5.5h-13a.5.5 0 0 1-.5-.5v-1.05a2.5 2.5 0 0 0 0-4.9z"/>
  </symbol>
  <!-- bell -->
  <symbol id="bell" fill="currentColor" class="bi bi-bell-fill" viewBox="0 0 16 16">
    <path d="M8 16a2 2 0 0 0 2-2H6a2 2 0 0 0 2 2m.995-14.901a1 1 0 1 0-1.99 0A5 5 0 0 0 3 6c0 1.098-.5 6-2 7h14c-1.5-1-2-5.902-2-7 0-2.42-1.72-4.44-4.005-4.901"/>
  </symbol>
  <!-- chevron-right -->
  <symbol id="chevron-right" fill="currentColor" class="bi bi-chevron-right" viewBox="0 0 16 16">
    <path fill-rule="evenodd" d="M4.646 1.646a.5.5 0 0 1 .708 0l6 6a.5.5 0 0 1 0 .708l-6 6a.5.5 0 0 1-.708-.708L10.293 8 4.646 2.354a.5.5 0 0 1 0-.708"/>
  </symbol>
  <!-- box-arrow-up-right -->
  <svg id="box-arrow-up-right" fill="currentColor" class="bi bi-box-arrow-up-right" viewBox="0 0 16 16">
    <path fill-rule="evenodd" d="M8.636 3.5a.5.5 0 0 0-.5-.5H1.5A1.5 1.5 0 0 0 0 4.5v10A1.5 1.5 0 0 0 1.5 16h10a1.5 1.5 0 0 0 1.5-1.5V7.864a.5.5 0 0 0-1 0V14.5a.5.5 0 0 1-.5.5h-10a.5.5 0 0 1-.5-.5v-10a.5.5 0 0 1 .5-.5h6.636a.5.5 0 0 0 .5-.5"/>
    <path fill-rule="evenodd" d="M16 .5a.5.5 0 0 0-.5-.5h-5a.5.5 0 0 0 0 1h3.793L6.146 9.146a.5.5 0 1 0 .708.708L15 1.707V5.5a.5.5 0 0 0 1 0z"/>
  </svg>
  <!-- check-circle -->
  <symbol id="check-circle" fill="currentColor" class="bi bi-check-circle" viewBox="0 0 16 16">
    <path d="M8 15A7 7 0 1 1 8 1a7 7 0 0 1 0 14m0 1A8 8 0 1 0 8 0a8 8 0 0 0 0 16"/>
    <path d="m10.97 4.97-.02.022-3.473 4.425-2.093-2.094a.75.75 0 0 0-1.06 1.06L6.97 11.03a.75.75 0 0 0 1.079-.02l3.992-4.99a.75.75 0 0 0-1.071-1.05"/>
  </symbol>
  <!-- x-circle -->
  <symbol id="x-circle" fill="currentColor" class="bi bi-x-circle" viewBox="0 0 16 16">
    <path d="M8 15A7 7 0 1 1 8 1a7 7 0 0 1 0 14m0 1A8 8 0 1 0 8 0a8 8 0 0 0 0 16"/>
    <path d="M4.646 4.646a.5.5 0 0 1 .708 0L8 7.293l2.646-2.647a.5.5 0 0 1 .708.708L8.707 8l2.647 2.646a.5.5 0 0 1-.708.708L8 8.707l-2.646 2.647a.5.5 0 0 1-.708-.708L7.293 8 4.646 5.354a.5.5 0 0 1 0-.708"/>
  </symbol>
  <!-- image -->
  <symbol id="image" fill="currentColor" class="bi bi-image" viewBox="0 0 16 16">
    <path d="M6.002 5.5a1.5 1.5 0 1 1-3 0 1.5 1.5 0 0 1 3 0"/>
    <path d="M2.002 1a2 2 0 0 0-2 2v10a2 2 0 0 0 2 2h12a2 2 0 0 0 2-2V3a2 2 0 0 0-2-2zm12 1a1 1 0 0 1 1 1v6.5l-3.777-1.947a.5.5 0 0 0-.577.093l-3.71 3.71-2.66-1.772a.5.5 0 0 0-.63.062L1.002 12V3a1 1 0 0 1 1-1z"/>
  </symbol>
  <!-- file-text -->
  <symbol id="file-text" fill="currentColor" class="bi bi-file-text" viewBox="0 0 16 16">
    <path d="M5 4a.5.5 0 0 0 0 1h6a.5.5 0 0 0 0-1zm-.5 2.5A.5.5 0 0 1 5 6h6a.5.5 0 0 1 0 1H5a.5.5 0 0 1-.5-.5M5 8a.5.5 0 0 0 0 1h6a.5.5 0 0 0 0-1zm0 2a.5.5 0 0 0 0 1h3a.5.5 0 0 0 0-1z"/>
    <path d="M2 2a2 2 0 0 1 2-2h8a2 2 0 0 1 2 2v12a2 2 0 0 1-2 2H4a2 2 0 0 1-2-2zm10-1H4a1 1 0 0 0-1 1v12a1 1 0 0 0 1 1h8a1 1 0 0 0 1-1V2a1 1 0 0 0-1-1"/>
  </symbol>
  <!-- plus -->
  <symbol id="plus" fill="currentColor" class="bi bi-plus-lg" viewBox="0 0 16 16">
    <path fill-rule="evenodd" d="M8 2a.5.5 0 0 1 .5.5v5h5a.5.5 0 0 1 0 1h-5v5a.5.5 0 0 1-1 0v-5h-5a.5.5 0 0 1 0-1h5v-5A.5.5 0 0 1 8 2"/>
  </symbol>
  <!-- trash3 -->
  <symbol id="trash3" fill="currentColor" class="bi bi-trash3" viewBox="0 0 16 16">
    <path d="M6.5 1h3a.5.5 0 0 1 .5.5v1H6v-1a.5.5 0 0 1 .5-.5M11 2.5v-1A1.5 1.5 0 0 0 9.5 0h-3A1.5 1.5 0 0 0 5 1.5v1H1.5a.5.5 0 0 0 0 1h.538l.853 10.66A2 2 0 0 0 4.885 16h6.23a2 2 0 0 0 1.994-1.84l.853-10.66h.538a.5.5 0 0 0 0-1zm1.958 1-.846 10.58a1 1 0 0 1-.997.92h-6.23a1 1 0 0 1-.997-.92L3.042 3.5zm-7.487 1a.5.5 0 0 1 .528.47l.5 8.5a.5.5 0 0 1-.998.06L5 5.03a.5.5 0 0 1 .47-.53Zm5.058 0a.5.5 0 0 1 .47.53l-.5 8.5a.5.5 0 1 1-.998-.06l.5-8.5a.5.5 0 0 1 .528-.47M8 4.5a.5.5 0 0 1 .5.5v8.5a.5.5 0 0 1-1 0V5a.5.5 0 0 1 .5-.5"/>
  </symbol>
</svg>