<svg width="397" height="405" viewBox="0 0 397 405" fill="none" xmlns="http://www.w3.org/2000/svg">
<path d="M192.965 379.161L18.1275 273.375C12.5922 270.135 7.76852 264.87 13.2248 261.468L188.694 157.869C191.304 156.168 195.337 155.115 198.025 156.735L381.561 265.842C387.096 269.163 388.124 278.397 382.589 281.718L215.976 378.999C208.859 383.211 200.16 383.292 192.965 379.161Z" fill="#FFD636"/>
<path d="M253.029 23.8684C272.667 36.4526 322.077 65.7543 338.936 76.3176C342.791 78.7058 343.329 82.2882 343.419 86.8809V301.087C341.267 303.658 337.59 304.21 334.811 302.464L251.863 254.424C247.738 251.944 244.51 249.372 244.51 244.504L245.227 27.7263C245.227 23.0417 249.173 21.2965 253.029 23.8684Z" fill="#5F3D2D"/>
<path d="M245.407 26.1648L272.399 42.1475V48.1181C272.399 49.1285 272.937 50.047 273.744 50.5982L294.638 62.9067C295.534 63.4578 296.61 63.0904 297.149 62.2637C297.328 61.9882 297.418 61.6207 297.418 61.3452V57.028L336.605 80.5429C337.322 81.0021 337.86 81.8288 337.86 82.7474V296.953C337.86 297.872 337.143 298.698 336.156 298.698C335.887 298.698 335.529 298.606 335.26 298.423L244.51 244.596C244.152 247.994 245.766 251.301 248.546 253.138C253.209 256.261 335.887 304.118 335.887 304.118C335.887 304.118 342.433 307.149 344.317 299.158V83.5741C344.317 80.7266 342.971 78.0628 340.73 76.4094C336.963 73.5619 252.671 23.4091 252.671 23.4091C252.671 23.4091 246.752 20.5616 245.407 26.1648Z" fill="#124577"/>
<path d="M230.072 70.347V89.9121C230.072 89.9121 230.61 95.2397 235.811 96.4338C241.012 97.6279 241.73 90.6469 241.73 90.6469V76.1339L230.072 70.347Z" fill="#E04F4F"/>
<path d="M241.282 78.0628L241.731 98.7302C241.731 98.7302 242.269 104.058 247.47 105.252C252.671 106.446 253.388 99.465 253.388 99.465V85.0438L241.282 78.0628Z" fill="#F29D40"/>
<path d="M253.388 85.1357V104.701C253.388 104.701 253.926 110.028 259.127 111.222C264.328 112.417 265.045 105.436 265.045 105.436V90.9225L253.388 85.1357Z" fill="#E04F4F"/>
<path d="M264.956 92.3003V111.865C264.956 111.865 265.494 117.193 270.695 118.387C275.896 119.581 276.614 112.6 276.614 112.6V98.179L264.956 92.3003Z" fill="#F29D40"/>
<path d="M276.523 98.2709V117.836C276.523 117.836 277.061 123.164 282.263 124.358C287.464 125.552 288.181 118.571 288.181 118.571V104.058L276.523 98.2709Z" fill="#E04F4F"/>
<path d="M287.912 106.262V125.827C287.912 125.827 288.45 131.155 293.651 132.349C298.852 133.543 299.57 126.562 299.57 126.562V112.049L287.912 106.262Z" fill="#F29D40"/>
<path d="M336.604 80.4511C336.604 80.4511 337.86 80.7266 337.86 82.8393V120.592L307.819 138.228L312.034 111.314L336.604 80.4511Z" fill="#E04F4F"/>
<path opacity="0.4" d="M336.604 80.4511C336.604 80.4511 337.86 80.7266 337.86 82.8393V120.592L307.819 138.228L312.034 111.314L336.604 80.4511Z" fill="#124577"/>
<path d="M299.479 114.254V131.89C299.479 131.89 300.018 137.217 305.219 138.412C310.42 139.606 311.137 132.625 311.137 132.625L310.868 121.051L299.479 114.254Z" fill="#E04F4F"/>
<path opacity="0.1" d="M230.072 70.347V89.9121C230.072 89.9121 230.61 95.2397 235.811 96.4338C241.012 97.6279 241.73 90.6469 241.73 90.6469V76.1339L230.072 70.347Z" fill="#124577"/>
<path opacity="0.1" d="M253.388 85.1357V104.701C253.388 104.701 253.926 110.028 259.127 111.222C264.328 112.417 265.045 105.436 265.045 105.436V90.9225L253.388 85.1357Z" fill="#124577"/>
<path opacity="0.1" d="M276.523 98.2709V117.836C276.523 117.836 277.061 123.164 282.263 124.358C287.464 125.552 288.181 118.571 288.181 118.571V104.058L276.523 98.2709Z" fill="#124577"/>
<path opacity="0.1" d="M299.479 114.254V131.89C299.479 131.89 300.018 137.217 305.219 138.412C310.42 139.606 311.137 132.625 311.137 132.625L310.868 121.051L299.479 114.254Z" fill="#124577"/>
<path d="M218.415 64.5602V85.1357C218.415 85.1357 218.953 90.4632 224.154 91.6574C229.355 92.8515 230.073 85.8705 230.073 85.8705V71.3574L218.415 64.5602Z" fill="#F29D40"/>
<path opacity="0.1" d="M241.282 78.0628L241.731 98.7302C241.731 98.7302 242.269 104.058 247.47 105.252C252.671 106.446 253.388 99.465 253.388 99.465V85.0438L241.282 78.0628Z" fill="#124577"/>
<path opacity="0.1" d="M264.956 92.3003V111.865C264.956 111.865 265.494 117.193 270.695 118.387C275.896 119.581 276.614 112.6 276.614 112.6V98.179L264.956 92.3003Z" fill="#124577"/>
<path opacity="0.1" d="M287.912 106.262V125.827C287.912 125.827 288.45 131.155 293.651 132.349C298.852 133.543 299.57 126.562 299.57 126.562V112.049L287.912 106.262Z" fill="#124577"/>
<path opacity="0.1" d="M218.415 64.5602V85.1357C218.415 85.1357 218.953 90.4632 224.154 91.6574C229.355 92.8515 230.073 85.8705 230.073 85.8705V71.3574L218.415 64.5602Z" fill="#124577"/>
<path d="M287.912 107.273L315.442 67.4995L326.023 74.2049L299.48 114.254" fill="#F29D40"/>
<path d="M264.956 93.3107L293.024 53.9969L303.515 60.6104L276.524 100.384" fill="#F29D40"/>
<path d="M241.642 78.7058L267.647 39.3919L280.56 46.8322L253.389 86.0542" fill="#F29D40"/>
<path d="M218.415 64.5602L245.407 26.1648L255.898 32.411L229.983 71.5411" fill="#F29D40"/>
<path d="M276.523 100.292L303.515 60.6104L315.442 67.4995L287.912 107.273" fill="#E04F4F"/>
<path d="M253.388 86.0542L280.559 46.8322L293.023 53.9968L264.956 93.2189" fill="#E04F4F"/>
<path d="M229.983 71.5411L255.899 32.411L267.646 39.3919L241.641 78.7058" fill="#E04F4F"/>
<path d="M310.868 121.051L336.604 80.4511L326.023 74.2049L299.479 114.254" fill="#E04F4F"/>
<path d="M266.121 171.02C266.121 171.02 270.425 162.11 269.708 161.283C268.991 160.457 266.569 164.039 266.569 164.039C266.569 164.039 266.569 154.854 265.762 154.762C264.955 154.67 264.597 160.457 264.597 160.457C264.597 160.457 263.789 153.659 262.444 153.659C261.099 153.659 262.444 160.181 262.444 160.181C262.444 160.181 260.113 156.139 259.396 156.415C258.678 156.691 260.561 161.835 260.561 161.835C260.561 161.835 258.409 159.997 258.14 160.457C257.871 160.916 260.382 167.254 261.906 168.815C262.982 169.826 263.879 171.02 264.597 172.306" fill="#FFE5D0"/>
<path d="M285.222 168.999C285.76 169.458 280.828 167.254 272.219 188.84C272.219 188.84 269.977 178.552 269.17 171.755C266.928 170.101 264.149 169.458 261.458 170.01C261.369 175.062 261.189 194.627 266.48 197.566C272.668 200.873 279.124 201.332 282.711 192.698C282.801 192.606 294.548 173.684 285.222 168.999Z" fill="#FFB72F"/>
<path opacity="0.3" d="M285.222 168.999C285.76 169.458 280.828 167.254 272.219 188.84C272.219 188.84 269.977 178.552 269.17 171.755C266.928 170.101 264.149 169.458 261.458 170.01C261.369 175.062 261.189 194.627 266.48 197.566C272.668 200.873 279.124 201.332 282.711 192.698C282.801 192.606 294.548 173.684 285.222 168.999Z" fill="#E04F4F"/>
<path d="M304.053 193.249L304.591 194.076C306.474 186.727 306.833 177.909 303.157 171.479C299.839 170.101 296.252 169.918 295.624 169.183L286.119 168.815C285.132 168.815 284.236 169.183 283.698 170.01C281.276 173.316 275.448 182.502 277.42 190.677C279.931 200.873 279.124 208.681 279.304 216.121C279.483 223.561 270.605 240.646 271.681 251.669C272.757 262.691 304.591 269.488 306.026 263.059C311.137 239.819 311.945 227.603 307.461 217.499C302.977 207.395 304.053 193.249 304.053 193.249Z" fill="#FFB72F"/>
<path d="M303.246 171.387C303.246 171.387 309.613 174.143 312.572 187.462C315.531 200.781 316.876 203.077 304.77 211.161C292.665 219.244 294.01 218.233 294.01 218.233C294.01 218.233 287.015 214.008 288.36 211.344C289.705 208.68 304.053 201.7 303.605 197.107C303.156 192.514 296.521 187.462 296.521 187.462" fill="#FFB72F"/>
<path opacity="0.4" d="M302.169 189.942C302.08 189.575 301.631 189.391 301.273 189.575C301.004 189.667 300.824 190.034 300.824 190.31C301.452 192.147 301.99 194.076 302.259 196.005C302.528 199.495 301.093 201.332 298.493 203.169C295.803 205.006 292.933 206.476 289.974 207.762C289.705 207.854 289.525 208.221 289.615 208.497C289.346 208.68 289.256 208.956 289.346 209.232C290.153 211.987 291.05 214.743 293.023 216.856C293.202 217.039 293.381 217.131 293.561 217.039C293.74 217.315 294.009 217.499 294.278 217.407C297.058 216.856 299.659 215.661 301.99 214.008C302.707 213.549 301.99 212.263 301.273 212.814C299.12 214.376 296.61 215.478 294.009 216.029C294.009 215.937 293.919 215.937 293.919 215.845C292.126 213.916 291.319 211.436 290.602 208.956C294.816 207.027 299.3 205.006 302.438 201.516C305.398 198.209 303.245 193.8 302.169 189.942Z" fill="#E04F4F"/>
<path d="M239.936 194.81C240.474 195.178 337.769 252.679 337.769 252.679L304.052 273.071L204.604 215.386L239.936 194.81Z" fill="#FFA364"/>
<path d="M304.054 273.071V329.929L337.771 308.159V252.679L304.054 273.071Z" fill="#FFA364"/>
<path opacity="0.4" d="M304.054 273.071V329.929L337.771 308.159V252.679L304.054 273.071Z" fill="#FFE5D0"/>
<path d="M204.604 215.386V267.835L304.052 329.929V273.071L204.604 215.386Z" fill="#FFA364"/>
<path opacity="0.1" d="M204.604 215.386V267.835L304.052 329.929V273.071L204.604 215.386Z" fill="#124577"/>
<path d="M288.181 165.601C288.181 165.601 288.091 169.458 287.105 171.387C286.118 173.316 289.795 174.051 292.844 173.133C295.893 172.214 294.458 164.866 294.458 164.866" fill="#FFE5D0"/>
<path d="M283.159 154.486C283.159 154.486 279.482 164.866 282.262 166.519C285.042 168.172 291.947 166.519 291.947 166.519" fill="#E04F4F"/>
<path d="M282.353 152.282C282.353 152.282 281.008 166.978 288.54 168.264C296.073 169.55 297.508 154.394 295.983 152.282C294.459 150.169 284.326 148.883 282.353 152.282Z" fill="#FFE5D0"/>
<path d="M291.947 163.212C291.498 165.049 291.767 167.07 292.754 168.724C295.802 169.458 299.031 169.275 302.08 168.172C306.115 158.711 301.99 144.29 292.305 143.28C282.621 142.269 281.096 147.964 280.558 151.363C280.02 154.762 282.352 154.486 283.338 154.394C291.498 153.935 293.65 157.885 291.947 163.212Z" fill="#E04F4F"/>
<path d="M289.346 209.232C289.346 209.232 285.221 211.344 282.979 211.712C280.737 212.079 278.765 209.966 278.047 210.977C277.33 211.987 281.365 212.447 280.379 213.181C279.392 213.916 276.882 214.375 276.074 215.937C275.267 217.499 274.371 220.162 276.613 221.724C278.854 223.285 282.083 220.162 284.235 218.876C286.387 217.59 290.96 214.008 290.96 214.008C290.96 214.008 290.422 210.334 289.346 209.232Z" fill="#FFE5D0"/>
<path d="M219.06 210.811V213.232L242.588 226.844L255.466 218.389V216.214" fill="#AC7149"/>
<path d="M235.533 204.216L255.466 216.214L242.486 224.774L219.06 210.811C219.06 210.811 225.738 206.637 226.218 206.216L231.971 202.392" fill="#AC7149"/>
<path opacity="0.6" d="M235.533 204.216L255.466 216.214L242.486 224.774L219.06 210.811C219.06 210.811 225.738 206.637 226.218 206.216L231.971 202.392" fill="white"/>
<path d="M230.772 207.514V180.957C230.772 180.957 230.772 174.923 237.793 174.361L254.096 182.851V190.324L247.931 193.691L239.643 190.92V212.706L230.772 207.514Z" fill="#AC7149"/>
<path opacity="0.6" d="M230.772 207.514V180.957C230.772 180.957 230.772 174.923 237.793 174.361L254.096 182.851V190.324L247.931 193.691L239.643 190.92V212.706L230.772 207.514Z" fill="white"/>
<path d="M247.486 179.273C254.182 179.273 259.61 176.131 259.61 172.256C259.61 168.381 254.182 165.24 247.486 165.24C240.79 165.24 235.362 168.381 235.362 172.256C235.362 176.131 240.79 179.273 247.486 179.273Z" fill="#E6E6E6"/>
<path d="M259.199 174.081L249.678 182.535H246.356C246.356 182.535 238.959 177.168 236.767 175.484" fill="#E6E6E6"/>
<path d="M247.485 178.571C253.103 178.571 257.657 175.964 257.657 172.748C257.657 169.531 253.103 166.924 247.485 166.924C241.868 166.924 237.313 169.531 237.313 172.748C237.313 175.964 241.868 178.571 247.485 178.571Z" fill="#AC7149"/>
<path opacity="0.4" d="M247.485 178.571C253.103 178.571 257.657 175.964 257.657 172.748C257.657 169.531 253.103 166.924 247.485 166.924C241.868 166.924 237.313 169.531 237.313 172.748C237.313 175.964 241.868 178.571 247.485 178.571Z" fill="black"/>
<path d="M245.294 192.113V210.04L239.677 212.706V190.955L245.294 192.113Z" fill="#AC7149"/>
<path d="M248.65 191.411V195.305C248.65 195.305 249.335 196.077 250.705 195.305V191.411H248.65Z" fill="#AC7149"/>
<path opacity="0.6" d="M248.65 191.411V195.305C248.65 195.305 249.335 196.077 250.705 195.305V191.411H248.65Z" fill="white"/>
<path d="M243.308 208.11C243.308 208.11 245.534 216.074 245.602 216.179C245.671 216.284 247.554 218.81 252.041 216.705L254.096 208.566" fill="#527717"/>
<path opacity="0.8" d="M243.308 208.11C243.308 208.11 245.534 216.074 245.602 216.179C245.671 216.284 247.554 218.81 252.041 216.705L254.096 208.566" fill="white"/>
<path d="M248.856 210.461C251.92 210.461 254.404 209.408 254.404 208.11C254.404 206.812 251.92 205.76 248.856 205.76C245.792 205.76 243.308 206.812 243.308 208.11C243.308 209.408 245.792 210.461 248.856 210.461Z" fill="#527717"/>
<path d="M248.65 195.305C248.65 195.305 247.417 196.849 248.273 197.866C249.129 198.884 249.164 199.655 248.719 201.129C248.273 202.602 247.76 204.602 249.266 205.023C250.773 205.444 250.431 202.181 250.294 201.234C250.157 200.287 250.397 201.83 251.321 201.409C252.246 200.988 252.075 199.69 251.321 198.392C250.568 197.094 250.671 195.305 250.671 195.305" fill="#5C2D1D"/>
<path d="M230.772 207.514L226.937 205.76L230.772 203.199V207.514Z" fill="#AC7149"/>
<path d="M256.425 174.817C256.425 174.817 254.541 172.783 253.171 175.098C251.801 177.413 256.596 176.361 256.425 174.817Z" fill="#5C2D1D"/>
<path d="M246.424 175.273C246.424 175.273 244.54 173.239 243.204 175.554C241.869 177.869 246.561 176.817 246.424 175.273Z" fill="#5C2D1D"/>
<path d="M241.116 172.116C241.116 172.116 239.301 174.221 241.664 175.414C244.027 176.571 242.623 171.835 241.116 172.116Z" fill="#5C2D1D"/>
<path d="M248.719 173.484C248.719 173.484 246.904 175.554 249.267 176.747C251.63 177.94 250.191 173.204 248.719 173.484Z" fill="#5C2D1D"/>
<path d="M244.677 167.766C244.677 167.766 244.3 170.537 246.903 170.187C249.506 169.836 245.739 166.678 244.677 167.766Z" fill="#5C2D1D"/>
<path d="M250.466 169.73C250.466 169.73 248.651 171.8 251.014 172.993C253.377 174.186 251.973 169.45 250.466 169.73Z" fill="#5C2D1D"/>
<path d="M243.137 169.555C243.137 169.555 241.321 171.625 243.685 172.853C246.048 174.081 244.644 169.274 243.137 169.555Z" fill="#5C2D1D"/>
<path d="M249.541 171.555C249.541 171.555 247.657 169.52 246.288 171.835C244.918 174.151 249.712 173.098 249.541 171.555Z" fill="#5C2D1D"/>
<path d="M254.027 169.029C254.027 169.029 252.212 171.099 254.575 172.291C256.938 173.484 255.534 168.713 254.027 169.029Z" fill="#5C2D1D"/>
<path d="M239.918 169.801C239.918 169.801 238.856 170.993 240.226 171.695C241.596 172.397 240.774 169.625 239.918 169.801Z" fill="#5C2D1D"/>
<path d="M263.797 233.042C268.35 233.042 272.04 231.169 272.04 228.859C272.04 226.549 268.35 224.676 263.797 224.676C259.244 224.676 255.554 226.549 255.554 228.859C255.554 231.169 259.244 233.042 263.797 233.042Z" fill="#FAF5EF"/>
<path d="M272.04 217.743V229.092C272.04 229.092 265.896 234.902 255.554 229.188V217.743" fill="#FAF5EF"/>
<path d="M256.783 221.81C256.783 221.81 255.422 219.679 254.136 220.9C252.85 222.12 253.966 226.419 257.747 226.826V228.549C257.747 228.549 253.002 227.891 252.359 223.533C251.716 219.176 254.779 218.498 256.291 219.699" fill="#FAF5EF"/>
<path d="M263.797 221.965C268.35 221.965 272.04 220.092 272.04 217.782C272.04 215.471 268.35 213.598 263.797 213.598C259.244 213.598 255.554 215.471 255.554 217.782C255.554 220.092 259.244 221.965 263.797 221.965Z" fill="#5F3D2D"/>
<path d="M263.797 221.965C268.35 221.965 272.04 220.092 272.04 217.782C272.04 215.471 268.35 213.598 263.797 213.598C259.244 213.598 255.554 215.471 255.554 217.782C255.554 220.092 259.244 221.965 263.797 221.965Z" fill="#5C2D1D"/>
<path d="M261.964 215.671C262.134 215.07 262.379 214.489 262.19 213.87C262.039 213.327 261.642 212.901 261.264 212.495C261.396 213.134 261.604 214.392 261.264 215.458C260.886 216.678 261.585 217.046 261.85 217.123C261.737 216.678 261.812 216.155 261.964 215.671Z" fill="white"/>
<path d="M264.383 214.586C264.554 213.986 264.799 213.405 264.61 212.785C264.459 212.243 264.062 211.817 263.684 211.41C263.835 212.049 264.024 213.308 263.684 214.354C263.306 215.574 264.005 215.942 264.27 216.019C264.157 215.593 264.251 215.07 264.383 214.586Z" fill="white"/>
<path d="M267.011 216.135C267.182 215.535 267.427 214.954 267.238 214.334C267.087 213.792 266.69 213.366 266.312 212.959C266.444 213.598 266.652 214.857 266.312 215.922C265.934 217.142 266.633 217.51 266.898 217.588C266.785 217.142 266.879 216.62 267.011 216.135Z" fill="white"/>
<path d="M246.225 265.186C246.225 265.186 248.881 273.983 249.545 274.896C250.209 275.809 258.923 281.618 258.84 283.444C258.757 285.27 255.355 286.017 253.28 285.851C251.205 285.685 239.254 280.705 238.507 279.294C237.76 277.883 237.76 265.269 237.76 265.269L246.225 265.186Z" fill="#3F170D"/>
<path d="M160.032 201.559V233.154H157.735L157.21 200.752" fill="#895851"/>
<path d="M147.038 189.391L142.445 223.743H144.741L149.532 190.668" fill="#895851"/>
<path d="M181.952 221.793C181.952 221.793 184.052 228.919 184.577 229.658C185.102 230.398 191.993 235.103 191.927 236.582C191.862 238.061 189.171 238.599 187.53 238.532C185.89 238.465 176.439 234.364 175.849 233.221C175.258 232.078 175.258 221.86 175.258 221.86L181.952 221.793Z" fill="#3F170D"/>
<path d="M145.791 156.788C146.382 158.535 149.794 184.887 149.794 184.887L153.272 183.677L148.744 156.586" fill="#895851"/>
<path d="M147.039 189.391L146.973 185.156L150.648 186.433L149.533 190.668" fill="#5F3D2D"/>
<path d="M155.307 182.803C155.307 182.803 146.119 186.433 147.038 189.996C147.957 193.559 155.307 202.298 160.032 201.492C164.757 200.685 170.467 196.517 170.467 196.517" fill="#E6E6E6"/>
<path d="M155.307 178.501C155.307 178.501 146.119 182.131 147.038 185.694C147.957 189.257 155.307 197.996 160.032 197.189C164.757 196.383 170.467 192.215 170.467 192.215" fill="#E6E6E6"/>
<path d="M151.698 145.427C151.698 145.427 142.773 147.712 141.919 152.956C141.066 158.199 140.738 167.88 153.404 164.115C166.07 160.351 160.098 150.603 160.098 150.603" fill="#E6E6E6"/>
<path d="M173.223 166.333C173.223 166.333 191.468 179.106 193.765 185.627C196.062 192.147 197.637 217.827 197.637 217.827C197.637 217.827 191.271 221.86 183.855 219.508L178.277 190.4C178.277 190.4 165.02 184.618 162.723 177.358C160.426 170.098 163.511 156.586 163.511 156.586" fill="#895851"/>
<path d="M163.052 173.795C163.052 173.795 181.296 186.568 183.593 193.089C185.89 199.609 187.465 225.289 187.465 225.289C187.465 225.289 181.099 229.322 173.683 226.969L168.105 197.861C168.105 197.861 154.848 192.08 152.551 184.82C150.254 177.56 153.339 164.048 153.339 164.048" fill="#895851"/>
<path d="M155.767 174.064C152.682 166.333 149.861 143.881 151.764 141.393C153.929 138.503 166.464 133.797 166.464 133.797C169.483 132.99 172.633 133.73 174.996 135.814C178.015 138.436 175.849 158.939 174.996 169.291C169.68 174.266 163.445 175.476 155.767 174.064Z" fill="#8CC63F"/>
<path d="M154.586 124.856C155.242 122.033 157.407 121.025 159.901 120.957C160.361 120.42 160.886 120.016 161.542 119.68C163.511 118.672 165.939 118.941 167.645 120.285C168.302 120.083 168.958 120.016 169.614 120.151C171.583 120.554 172.239 122.436 172.174 124.251V124.453C172.633 127.545 170.008 129.428 170.008 129.428L161.673 136.217C160.558 135.881 159.508 135.209 158.72 134.402C158.458 134.066 158.195 133.663 158.064 133.192C157.998 133.125 157.933 133.125 157.867 133.058C155.439 131.175 153.929 128.016 154.586 124.856Z" fill="#895851"/>
<path d="M169.679 127.007C169.679 128.083 170.007 138.167 165.545 138.301C161.082 138.436 159.507 132.049 159.507 132.049C159.507 132.049 163.182 130.1 163.182 128.554C163.182 127.007 162.92 126.402 164.692 125.596C166.463 124.789 169.745 125.26 169.679 127.007Z" fill="#FFD8C6"/>
<path d="M172.239 134.066C172.239 134.066 186.218 140.049 188.383 150.469C191.402 164.922 173.224 149.796 173.224 149.796" fill="#8CC63F"/>
<path d="M174.601 137.562C174.601 137.562 176.308 143.007 170.861 143.612C165.414 144.217 166.201 138.301 166.201 138.301" fill="#E6E6E6"/>
<path d="M166.214 138.292C166.103 136.923 167.887 135.654 170.199 135.458C172.511 135.261 174.475 136.212 174.585 137.581C174.696 138.95 172.912 140.219 170.6 140.415C168.288 140.612 166.325 139.661 166.214 138.292Z" fill="#3F170D"/>
<path d="M168.104 144.687C168.104 144.687 167.71 147.981 169.548 148.586C171.057 149.191 172.435 150.065 173.682 151.141L175.389 165.056L176.373 151.813L175.192 145.897L168.104 144.687Z" fill="#527717"/>
<path d="M181.887 144.687C181.887 144.687 176.505 137.024 175.652 137.562C173.88 138.772 175.718 141.73 175.718 141.73C175.718 141.73 168.236 141.864 168.039 144.687C167.843 147.511 177.621 146.368 177.621 146.368L180.246 148.25" fill="#FFD8C6"/>
<path d="M181.033 141.326C182.148 141.057 198.687 154.099 191.796 159.073C185.036 163.913 173.683 148.654 173.683 148.654C173.683 148.654 176.242 142.469 181.033 141.326Z" fill="#8CC63F"/>
<path d="M168.827 176.35C172.108 179.711 175.586 182.938 178.671 186.501C181.296 189.593 182.346 193.559 183.396 197.458C185.758 206.533 186.874 215.945 187.924 225.222C187.99 225.759 187.137 225.759 187.071 225.222C186.087 216.214 185.037 207.206 182.74 198.466C181.624 194.164 180.574 189.929 177.555 186.568C174.536 183.207 171.32 180.182 168.17 176.955C167.974 176.753 168.039 176.484 168.17 176.283C168.302 176.081 168.695 176.215 168.827 176.35Z" fill="#3F170D"/>
<path d="M175.783 175.341C175.783 175.341 184.643 177.493 184.315 178.299C183.987 179.106 181.099 178.299 181.099 178.299C181.099 178.299 187.006 180.854 185.824 183.341C185.037 184.954 179.393 183.879 177.883 183.341C176.374 182.803 172.174 178.703 172.174 178.703L175.783 175.341Z" fill="#FFD8C6"/>
<path d="M160.032 150.603C160.032 150.603 161.936 164.653 163.379 166.535C164.823 168.417 179.786 175.207 179.786 175.207C179.786 175.207 174.864 177.493 174.995 182.803C174.995 182.803 156.16 177.963 154.257 173.526C152.354 169.09 146.907 146.771 151.698 141.326C156.489 135.881 160.032 150.603 160.032 150.603Z" fill="#8CC63F"/>
<path d="M161.017 153.628C161.345 156.25 161.805 158.872 162.461 161.493C163.117 163.913 163.511 166.871 165.939 168.148C170.402 170.501 175.258 172.249 179.852 174.266C180.377 174.468 179.918 175.274 179.393 175.005L170.73 171.174C168.63 170.3 165.545 169.56 163.97 167.812C162.592 166.266 162.133 163.577 161.673 161.695C161.017 159.073 160.492 156.317 160.164 153.628C160.033 153.023 160.886 153.09 161.017 153.628Z" fill="#527717"/>
<path d="M299.716 264.87L316.135 254.031L316.308 230.732L313.087 216.27L294.31 226.638L290.313 235.887V259.333L299.343 264.664" fill="#5F3D2D"/>
<path opacity="0.61" d="M290.314 235.887L299.717 241.954V264.87L290.228 259.333L290.314 235.887Z" fill="black"/>
<path opacity="0.61" d="M299.716 241.954L294.31 226.638L290.313 235.887L299.716 241.954Z" fill="black"/>
<g opacity="0.61">
<path d="M304.174 245.106C304.347 244.959 304.606 244.929 304.836 245.047C305.037 245.194 305.152 245.43 305.152 245.695L304.606 246.019C304.577 245.872 304.433 245.754 304.289 245.783C304.232 245.783 304.203 245.813 304.146 245.842C303.973 245.96 303.858 246.107 303.772 246.284C303.685 246.52 303.628 246.755 303.599 246.991C303.57 247.197 303.599 247.374 303.714 247.551C303.801 247.669 303.916 247.669 304.059 247.58C304.174 247.492 304.261 247.403 304.347 247.286C304.433 247.138 304.491 246.991 304.548 246.844L305.094 246.52C305.037 246.873 304.893 247.227 304.721 247.551C304.548 247.845 304.318 248.081 304.059 248.258C303.916 248.375 303.714 248.405 303.542 248.375C303.369 248.317 303.254 248.199 303.197 248.022C303.11 247.786 303.082 247.521 303.11 247.286C303.11 246.991 303.168 246.697 303.283 246.402C303.369 246.137 303.513 245.872 303.657 245.636C303.743 245.401 303.944 245.224 304.174 245.106Z" fill="black"/>
<path d="M307.337 244.016C307.423 244.252 307.452 244.487 307.452 244.753C307.452 245.047 307.395 245.342 307.28 245.636C307.193 245.931 307.05 246.196 306.877 246.431C306.733 246.638 306.561 246.814 306.331 246.962C306.187 247.079 305.986 247.109 305.813 247.079C305.641 247.021 305.526 246.903 305.439 246.755C305.353 246.52 305.324 246.284 305.324 246.019C305.324 245.725 305.382 245.43 305.497 245.135C305.583 244.841 305.727 244.576 305.899 244.34C306.043 244.134 306.244 243.957 306.446 243.839C306.589 243.722 306.791 243.692 306.992 243.722C307.136 243.722 307.28 243.839 307.337 244.016ZM306.762 245.783C306.877 245.548 306.934 245.312 306.934 245.047C306.963 244.841 306.934 244.664 306.819 244.487C306.733 244.37 306.589 244.37 306.446 244.458C306.273 244.576 306.129 244.723 306.043 244.929C305.928 245.165 305.871 245.401 305.871 245.666C305.842 245.872 305.871 246.049 305.986 246.225C306.072 246.343 306.216 246.343 306.388 246.225C306.532 246.107 306.676 245.96 306.762 245.783Z" fill="black"/>
<path d="M309.178 242.249L309.149 242.838L308.286 243.339L308.258 244.016L308.919 243.633L308.89 244.193L308.229 244.576L308.171 245.842L307.683 246.137L307.798 243.044L309.178 242.249Z" fill="black"/>
<path d="M310.788 241.306L310.759 241.895L309.896 242.396V243.074L310.558 242.691L310.529 243.25L309.868 243.633L309.81 244.9L309.321 245.194L309.436 242.102L310.788 241.306Z" fill="black"/>
<path d="M312.369 240.393L312.341 240.982L311.535 241.454V242.102L312.226 241.689L312.197 242.249L311.507 242.661L311.478 243.339L312.283 242.897L312.254 243.486L310.932 244.252L311.047 241.159L312.369 240.393Z" fill="black"/>
<path d="M313.951 239.48V240.069L313.146 240.541L313.117 241.189L313.836 240.776L313.807 241.336L313.088 241.748L313.06 242.426L313.865 241.954L313.836 242.573L312.542 243.309L312.657 240.217L313.951 239.48Z" fill="black"/>
</g>
<g opacity="0.61">
<path d="M303.714 241.984C304.433 241.601 305.152 241.189 305.842 240.806L303.714 241.984Z" fill="black"/>
<path d="M302.017 242.426V243.663L314.554 236.711V235.474L302.017 242.426Z" fill="black"/>
</g>
<g opacity="0.61">
<path d="M303.8 250.997C304.519 250.614 305.238 250.202 305.928 249.819L303.8 250.997Z" fill="black"/>
<path d="M302.104 251.439V252.676L314.641 245.725V244.487L302.104 251.439Z" fill="black"/>
</g>
<path d="M322.433 253.206L318.494 250.408C318.494 250.408 316.653 252.028 318.494 253.972C319.73 255.268 321.973 254.738 322.232 254.149C322.289 253.795 322.404 253.53 322.433 253.206Z" fill="#5C2D1D"/>
<path d="M322.462 253.766C322.634 253.088 322.203 252.087 321.915 251.586C320.966 250.054 319.212 249.966 318.522 250.378C317.832 250.791 317.803 251.822 318.12 252.558C318.551 253.559 319.759 254.355 320.794 254.502C321.196 254.59 321.599 254.531 321.973 254.384C322.203 254.266 322.375 254.031 322.462 253.766Z" fill="#AC7149"/>
<path d="M322.203 254.178L322.231 254.149L321.656 253.265C321.484 252.882 321.283 252.529 321.024 252.205C320.851 252.087 319.989 252.205 319.902 251.939C319.73 251.615 319.528 251.35 319.298 251.085L318.292 250.555L319.155 251.321L319.413 252.087L320.506 252.381L321.167 253.059L321.57 253.677L322.203 254.178Z" fill="#5C2D1D"/>
<path d="M313.979 255.621L316.107 251.233C316.107 251.233 318.494 251.733 317.775 254.355C317.315 256.093 315.072 256.741 314.583 256.358C314.382 256.063 314.181 255.886 313.979 255.621Z" fill="#5C2D1D"/>
<path d="M314.238 256.122C313.749 255.592 313.663 254.531 313.691 253.942C313.806 252.146 315.302 251.174 316.107 251.233C316.912 251.291 317.401 252.146 317.487 252.941C317.573 254.031 316.883 255.327 316.049 255.945C315.733 256.21 315.359 256.358 314.957 256.417C314.698 256.446 314.41 256.328 314.238 256.122Z" fill="#AC7149"/>
<path d="M314.641 256.358L314.583 256.328L314.669 255.268C314.641 254.855 314.669 254.443 314.727 254.031C314.813 253.825 315.618 253.53 315.589 253.265C315.589 252.911 315.618 252.558 315.704 252.205L316.366 251.262L315.963 252.352L316.078 253.147L315.273 253.942L315.014 254.855L314.957 255.592L314.641 256.358Z" fill="#5C2D1D"/>
<path d="M320.765 258.92L318.637 254.531C318.637 254.531 316.25 255.032 316.969 257.654C317.429 259.391 319.672 260.039 320.161 259.657C320.362 259.362 320.563 259.185 320.765 258.92Z" fill="#5C2D1D"/>
<path d="M320.507 259.421C320.995 258.891 321.082 257.83 321.053 257.241C320.938 255.445 319.443 254.502 318.638 254.531C317.832 254.561 317.315 255.445 317.257 256.24C317.171 257.33 317.861 258.596 318.695 259.244C319.011 259.509 319.385 259.657 319.788 259.715C320.047 259.745 320.334 259.627 320.507 259.421Z" fill="#AC7149"/>
<path d="M320.103 259.657L320.161 259.627L320.074 258.567C320.103 258.154 320.074 257.742 320.017 257.3C319.931 257.094 319.126 256.799 319.154 256.534C319.154 256.181 319.126 255.827 319.039 255.503L318.378 254.561L318.781 255.651L318.665 256.446L319.471 257.241L319.729 258.154L319.787 258.891L320.103 259.657Z" fill="#5C2D1D"/>
<path d="M121.255 267.494V244.286L141.565 232.651V255.669L121.255 267.494Z" fill="#FFB72F"/>
<path opacity="0.1" d="M121.255 267.494V244.286L141.565 232.651V255.669L121.255 267.494Z" fill="#124577"/>
<path d="M121.255 244.286L101.5 232.651C101.5 232.651 100.944 256.048 101.5 256.427C102.055 256.807 121.255 267.494 121.255 267.494V244.286Z" fill="#FFB72F"/>
<path d="M101.5 232.651L121.255 220.32L141.503 232.651L121.255 244.286L101.5 232.651Z" fill="#FFB72F"/>
<path opacity="0.4" d="M101.5 232.651L121.255 220.32L141.503 232.651L121.255 244.286L101.5 232.651Z" fill="#FFE5D0"/>
<path d="M109.031 227.971L129.588 239.544V251.622L135.453 248.586V236.129L114.958 224.304L109.031 227.971Z" fill="#FFE5D0"/>
<path d="M72.4331 233.63C65.269 234.134 65.6202 246.005 65.1285 250.969C64.9881 252.192 66.8844 252.624 66.9547 251.4C67.3761 247.3 67.0951 241.76 69.3427 238.091C70.0451 236.939 70.8879 235.86 72.2927 235.788C73.1355 235.788 73.9783 236.076 74.6105 236.724C75.2426 237.299 75.5938 239.601 75.664 240.249C76.0152 242.767 76.0854 245.357 75.8045 247.947C75.664 249.17 77.5604 249.602 77.7009 248.379C78.1223 244.494 78.8949 233.198 72.4331 233.63Z" fill="#8CCC00"/>
<path d="M83.1792 241.616L85.3565 245.285L89.6409 246.22L86.41 257.66L77.2793 251.544" fill="#E04F4F"/>
<path opacity="0.4" d="M83.1792 241.616L85.3565 245.285L89.6409 246.22L86.41 257.66L77.2793 251.544" fill="#124577"/>
<path d="M61.0537 254.134L83.1782 241.616L82.4759 260.178L65.5488 261.904L61.0537 254.134Z" fill="#E04F4F"/>
<path d="M68.9902 256.868L72.4318 292.05L93.0814 279.387L89.6398 246.22L68.9902 256.868Z" fill="#F29D40"/>
<path d="M68.9909 256.868L66.6731 254.134H61.0541L58.7363 284.927L64.7767 287.733L72.4325 292.05L68.9909 256.868Z" fill="#F29D40"/>
<path opacity="0.1" d="M68.9909 256.868L66.6731 254.134H61.0541L58.7363 284.927L64.7767 287.733L72.4325 292.05L68.9909 256.868Z" fill="#124577"/>
<path d="M81.7032 239.529C74.5391 239.601 74.1879 251.472 73.4153 256.365C73.2046 257.588 75.0308 258.091 75.2415 256.868C75.8736 252.767 75.9438 247.228 78.4021 243.774C79.3854 242.335 81.1414 241.184 82.8973 242.048C84.4425 242.911 84.4425 244.781 84.5829 246.292C84.7936 248.882 84.7234 251.472 84.2318 253.99C84.021 255.214 85.8472 255.789 86.0579 254.494C86.7603 250.681 88.0948 239.457 81.7032 239.529Z" fill="#8CCC00"/>
<path d="M74.3895 168.622C76.0501 167.731 77.7107 167.731 78.9759 168.622C81.5063 170.566 81.5063 175.75 78.9759 180.286C77.9479 182.311 76.3664 184.012 74.3895 185.065C72.7289 185.956 71.0683 185.956 69.8031 185.065C67.2727 183.121 67.2727 177.937 69.8031 173.401C70.8311 171.457 72.4126 169.756 74.3895 168.622Z" fill="#5F3D2D"/>
<path d="M74.3102 140.758C81.5852 136.951 88.8602 136.627 94.3955 140.839C95.1863 141.487 95.1863 143.107 94.3955 144.565C94.0792 145.213 93.5257 145.699 92.9722 146.104C92.4977 146.428 91.9442 146.428 91.5488 146.104C86.8042 142.54 80.5572 142.783 74.3102 146.023C68.0632 149.263 61.8953 155.581 57.1507 164.086C56.8344 164.734 56.2809 165.301 55.7274 165.625C55.2529 165.949 54.6994 165.949 54.304 165.625C53.5132 164.977 53.5132 163.357 54.304 161.899C59.7603 151.936 67.0352 144.565 74.3102 140.758Z" fill="#5F3D2D"/>
<path d="M74.2316 126.34C84.2742 121.075 94.3169 120.751 102.145 126.664C103.411 127.636 102.541 130.957 100.722 131.929C100.248 132.253 99.694 132.253 99.2987 131.929C92.2609 126.664 83.3253 126.907 74.3106 131.605C65.296 136.303 56.3604 145.456 49.3226 158.092C49.0063 158.74 48.4528 159.226 47.8992 159.631C47.4248 159.955 46.8713 159.955 46.4759 159.631C45.6851 159.064 45.6851 157.363 46.4759 155.905C54.1463 141.892 64.1889 131.605 74.2316 126.34Z" fill="#5F3D2D"/>
<path d="M74.3107 154.204C78.8971 151.774 83.4835 151.612 86.9629 154.285C88.2281 155.257 87.3583 158.578 85.5395 159.55C85.065 159.874 84.5115 159.874 84.1161 159.55C81.4275 157.525 77.8691 157.687 74.3898 159.55C70.9104 161.413 67.352 164.977 64.6634 169.837C64.3471 170.485 63.7936 170.971 63.2401 171.376C62.7656 171.7 62.2121 171.7 61.8167 171.376C61.0259 170.728 61.0259 169.108 61.8167 167.65C65.1379 161.251 69.7243 156.634 74.3107 154.204Z" fill="#5F3D2D"/>
<path d="M204.431 361.989C216.004 361.989 225.386 355.207 225.386 346.842C225.386 338.477 216.004 331.695 204.431 331.695C192.858 331.695 183.476 338.477 183.476 346.842C183.476 355.207 192.858 361.989 204.431 361.989Z" fill="#5F3D2D"/>
<path d="M204.43 344.412C213.121 344.412 220.167 341.475 220.167 337.851C220.167 334.227 213.121 331.29 204.43 331.29C195.74 331.29 188.694 334.227 188.694 337.851C188.694 341.475 195.74 344.412 204.43 344.412Z" fill="#5C2D1D"/>
<path d="M203.798 326.835C203.798 323.838 203.719 320.841 203.482 317.925C203.403 317.196 203.324 316.386 203.244 315.657C203.244 315.495 203.165 314.604 203.086 314.118L202.849 312.579C202.77 311.931 202.691 311.364 202.533 310.797C200.793 300.672 196.997 291.114 191.304 282.69C189.169 287.874 188.141 293.463 188.22 299.133C188.22 300.753 188.299 302.373 188.457 303.993C188.457 304.398 188.536 304.641 188.536 304.722C188.536 304.641 188.536 304.641 188.615 304.965C188.774 305.775 188.932 306.585 189.011 307.395C189.643 310.392 190.434 313.389 191.462 316.305C192.411 318.978 193.518 321.57 194.862 324.081C196.286 326.916 197.867 329.67 199.528 332.262C200.793 334.368 202.058 336.231 203.324 338.013C203.64 334.287 203.798 330.561 203.798 326.835Z" fill="#527717"/>
<path d="M209.255 329.184C210.836 326.673 212.339 324.162 213.683 321.489C214.078 320.841 214.395 320.112 214.711 319.464C214.79 319.383 215.185 318.492 215.344 318.087C215.502 317.682 215.976 316.629 215.976 316.629C216.213 316.062 216.451 315.495 216.688 314.928C220.563 305.532 222.381 295.326 222.065 285.12C217.479 288.36 213.683 292.491 210.757 297.27C209.887 298.647 209.176 300.105 208.385 301.482L208.069 302.13C208.069 302.049 208.148 302.049 207.99 302.373C207.673 303.102 207.357 303.912 207.12 304.641C206.092 307.476 205.222 310.473 204.51 313.47C203.878 316.224 203.482 319.059 203.245 321.894C202.929 325.053 202.85 328.212 202.85 331.371C202.85 333.882 202.929 336.15 203.008 338.256C205.143 335.34 207.278 332.262 209.255 329.184Z" fill="#527717"/>
<path d="M209.176 336.555C210.836 335.745 212.418 334.854 213.999 333.882L215.185 333.153L215.976 332.667L216.767 332.1L217.637 331.452C222.698 327.645 226.889 322.785 229.973 317.115C226.493 317.358 223.172 318.249 220.088 319.869C219.218 320.355 218.349 320.841 217.479 321.408L217.083 321.651C217.083 321.651 217.162 321.651 216.925 321.732C216.53 322.056 216.134 322.299 215.739 322.623C214.237 323.838 212.813 325.134 211.548 326.511C210.362 327.807 209.255 329.184 208.227 330.642C207.041 332.262 206.013 333.882 204.985 335.583C204.194 336.879 203.482 338.175 202.929 339.39C204.985 338.58 207.12 337.608 209.176 336.555Z" fill="#527717"/>
</svg>
